<svg width="2010" height="780" viewBox="0 0 2010 780" xmlns="http://www.w3.org/2000/svg" xmlns:xlink="http://www.w3.org/1999/xlink"><title>bilderrahmen-logo</title><defs><linearGradient x1="50%" y1="0%" x2="50%" y2="100%" id="g"><stop stop-color="#FBFBFB" offset="0%"/><stop stop-color="#FDFDFD" offset="100%"/></linearGradient><radialGradient cy="41.193%" fx="50%" fy="41.193%" r="100%" id="i"><stop stop-color="#F9E39A" offset="0%"/><stop stop-color="#E4C385" offset="14.517%"/><stop stop-color="#654000" offset="100%"/></radialGradient><path id="a" d="M9 10h298v217H9z"/><mask id="h" x="0" y="0" width="298" height="217" fill="#fff"><use xlink:href="#a"/></mask><radialGradient cy="41.193%" fx="50%" fy="41.193%" r="58.807%" id="k"><stop stop-color="#F9E39A" offset="0%"/><stop stop-color="#E4C385" offset="14.517%"/><stop stop-color="#654000" offset="100%"/></radialGradient><path d="M3.562 179.617c4.05-2.87 27.888-6.427 42.43 7.78h11.402c14.507 19.496-25.6 60.128-47.586 46.732v-11.442c-13.656-16.17-10.296-40.2-6.246-43.07z" id="b"/><mask id="j" x="0" y="0" width="60.482" height="59.786" fill="#fff"><use xlink:href="#b"/></mask><path d="M259.562 179.617c4.05-2.87 27.888-6.427 42.43 7.78h11.402c14.507 19.496-25.6 60.128-47.586 46.732v-11.442c-13.656-16.17-10.296-40.2-6.246-43.07z" id="c"/><mask id="l" x="0" y="0" width="60.482" height="59.786" fill="#fff"><use xlink:href="#c"/></mask><path d="M259.562 2.617c4.05-2.87 27.888-6.427 42.43 7.78h11.402c14.507 19.496-25.6 60.128-47.586 46.732V45.687c-13.656-16.17-10.296-40.2-6.246-43.07z" id="d"/><mask id="m" x="0" y="0" width="60.482" height="59.786" fill="#fff"><use xlink:href="#d"/></mask><path d="M3.562 2.617c4.05-2.87 27.888-6.427 42.43 7.78h11.402C71.9 29.893 31.794 70.525 9.808 57.13V45.687C-3.848 29.518-.488 5.488 3.562 2.618z" id="e"/><mask id="n" x="0" y="0" width="60.482" height="59.786" fill="#fff"><use xlink:href="#e"/></mask><linearGradient x1="32.509%" y1="72.684%" x2="81.98%" y2="14.104%" id="p"><stop stop-color="#E7F2FB" offset="0%"/><stop stop-color="#FCFCFC" offset="100%"/></linearGradient><path id="f" d="M45 41h227v155H45z"/><mask id="o" x="0" y="0" width="227" height="155" fill="#fff"><use xlink:href="#f"/></mask></defs><g fill="none" fill-rule="evenodd"><path fill="url(#g)" d="M0 0h2010v780H0z"/><path d="M521.2 250H547c10 0 17.85 1.975 23.55 5.925 5.7 3.95 8.55 9.975 8.55 18.075 0 5.3-1.475 9.85-4.425 13.65-2.95 3.8-7.375 6.45-13.275 7.95v.6c7.4 1.1 13.25 3.65 17.55 7.65 4.3 4 6.45 9.45 6.45 16.35 0 9.5-3.275 16.675-9.825 21.525-6.55 4.85-15.475 7.275-26.775 7.275h-27.6v-99zm22.8 44.1c10.8 0 18.55-1.725 23.25-5.175 4.7-3.45 7.05-8.625 7.05-15.525 0-6.8-2.475-11.7-7.425-14.7-4.95-3-12.275-4.5-21.975-4.5H526v39.9h18zm3 50.7c5.2 0 9.875-.475 14.025-1.425 4.15-.95 7.675-2.425 10.575-4.425 2.9-2 5.125-4.525 6.675-7.575 1.55-3.05 2.325-6.675 2.325-10.875 0-7.5-2.925-13.075-8.775-16.725-5.85-3.65-14.125-5.475-24.825-5.475h-21v46.5h21zm65.3-94.8h4.8v99h-4.8v-99zm39.8 0h4.8v94.8h46.5v4.2h-51.3v-99zm74 0h22.2c7.6 0 14.2 1.175 19.8 3.525 5.6 2.35 10.225 5.7 13.875 10.05 3.65 4.35 6.35 9.55 8.1 15.6 1.75 6.05 2.625 12.725 2.625 20.025 0 7.4-.875 14.15-2.625 20.25s-4.45 11.325-8.1 15.675c-3.65 4.35-8.275 7.75-13.875 10.2-5.6 2.45-12.2 3.675-19.8 3.675h-22.2v-99zm21.6 94.8c7 0 13.025-1.15 18.075-3.45 5.05-2.3 9.2-5.475 12.45-9.525 3.25-4.05 5.625-8.875 7.125-14.475s2.25-11.65 2.25-18.15c0-6.5-.75-12.5-2.25-18s-3.875-10.25-7.125-14.25-7.4-7.125-12.45-9.375c-5.05-2.25-11.075-3.375-18.075-3.375h-16.8v90.6h16.8zm73.4-94.8h53.1v4.2h-48.3v39.9h40.5v4.2h-40.5v46.5h49.8v4.2h-54.6v-99zm107 48c9.2 0 16.25-1.825 21.15-5.475 4.9-3.65 7.35-9.325 7.35-17.025 0-7.8-2.45-13.3-7.35-16.5-4.9-3.2-11.95-4.8-21.15-4.8h-20.7V298h20.7zm29.4 51l-27.9-46.8h-22.2V349h-4.8v-99h27.3c4.9 0 9.3.475 13.2 1.425 3.9.95 7.225 2.45 9.975 4.5s4.875 4.675 6.375 7.875 2.25 7.1 2.25 11.7c0 7.9-2.375 14.075-7.125 18.525-4.75 4.45-11.275 7.075-19.575 7.875l28.2 47.1h-5.7zm58.4-51c9.2 0 16.25-1.825 21.15-5.475 4.9-3.65 7.35-9.325 7.35-17.025 0-7.8-2.45-13.3-7.35-16.5-4.9-3.2-11.95-4.8-21.15-4.8h-20.7V298h20.7zm29.4 51l-27.9-46.8h-22.2V349h-4.8v-99h27.3c4.9 0 9.3.475 13.2 1.425 3.9.95 7.225 2.45 9.975 4.5s4.875 4.675 6.375 7.875 2.25 7.1 2.25 11.7c0 7.9-2.375 14.075-7.125 18.525-4.75 4.45-11.275 7.075-19.575 7.875L1051 349h-5.7zm74-39.6l-6.9-19.8c-2.1-6-4.075-11.7-5.925-17.1-1.85-5.4-3.675-11.2-5.475-17.4h-.6c-1.8 6.2-3.625 12-5.475 17.4-1.85 5.4-3.825 11.1-5.925 17.1l-7.05 19.8h37.35zm1.5 4.2h-40.35L1068 349h-4.8l35.4-99h4.2l35.4 99h-5.1l-12.3-35.4zm38.9-63.6h4.8v44.1h55.5V250h4.8v99h-4.8v-50.7h-55.5V349h-4.8v-99zm100.1 0h7.8l21.3 60 8.1 22.5h.6l7.8-22.5 21.3-60h7.8v99h-4.8v-69c0-3.9.05-8.15.15-12.75.1-4.6.25-8.95.45-13.05h-.6l-7.65 21.6-22.05 62.1h-5.7l-22.2-62.1-7.8-21.6h-.6c.2 4.1.35 8.45.45 13.05.1 4.6.15 8.85.15 12.75v69h-4.5v-99zm109.7 0h53.1v4.2h-48.3v39.9h40.5v4.2h-40.5v46.5h49.8v4.2h-54.6v-99zm81.5 0h5.1l43.8 72.6 11.4 19.5h.6c-.2-4.8-.35-9.475-.45-14.025-.1-4.55-.15-9.175-.15-13.875V250h4.5v99h-5.1l-43.8-72.6-11.4-19.5h-.6c.2 4.7.35 9.2.45 13.5.1 4.3.15 8.8.15 13.5V349h-4.5v-99z" fill="#555"/><g transform="translate(846 445)" stroke="#555"><use mask="url(#h)" stroke-width="12" fill="url(#i)" xlink:href="#a"/><use mask="url(#j)" stroke-width="12" fill="url(#k)" transform="matrix(1 0 0 -1 0 413.786)" xlink:href="#b"/><use mask="url(#l)" stroke-width="12" fill="url(#k)" transform="rotate(180 286.24 206.893)" xlink:href="#c"/><use mask="url(#m)" stroke-width="12" fill="url(#k)" transform="matrix(-1 0 0 1 572.482 0)" xlink:href="#d"/><use mask="url(#n)" stroke-width="12" fill="url(#k)" xlink:href="#e"/><use mask="url(#o)" stroke-width="12" fill="url(#p)" xlink:href="#f"/><g stroke-width="5"><path d="M23.695 10.59c.862 13.014 2.82 23.945 22.49 18.447M10.843 19.856c11.533 4.06 21.145 8.568 15.053 24.69"/></g><g stroke-width="5"><path d="M292.48 10.59c-.862 13.014-2.82 23.945-22.49 18.447M305.332 19.856c-11.533 4.06-21.145 8.568-15.053 24.69"/></g><g stroke-width="5"><path d="M292.48 226.89c-.862-13.013-2.82-23.944-22.49-18.447M305.332 217.624c-11.533-4.06-21.145-8.568-15.053-24.688"/></g><g stroke-width="5"><path d="M22.695 226.89c.862-13.013 2.82-23.944 22.49-18.447M9.843 217.624c11.533-4.06 21.145-8.568 15.053-24.688"/></g></g></g></svg>