<?xml version="1.0" encoding="UTF-8" standalone="no"?>
<svg width="560px" height="87px" viewBox="0 0 560 87" version="1.1" xmlns="http://www.w3.org/2000/svg" xmlns:xlink="http://www.w3.org/1999/xlink">
    <!-- Generator: Sketch 42 (36781) - http://www.bohemiancoding.com/sketch -->
    <title>supported-browsers</title>
    <desc>Created with Sketch.</desc>
    <defs>
        <rect id="path-1" x="4" y="6.5" width="553" height="76"></rect>
        <mask id="mask-2" maskContentUnits="userSpaceOnUse" maskUnits="objectBoundingBox" x="0" y="0" width="553" height="76" fill="white">
            <use xlink:href="#path-1"></use>
        </mask>
    </defs>
    <g id="Page-1" stroke="none" stroke-width="1" fill="none" fill-rule="evenodd">
        <use id="Rectangle-2" stroke="#555555" mask="url(#mask-2)" stroke-width="2" fill="#555555" xlink:href="#path-1"></use>
        <path d="M22.416,34.755 C21.968,34.869 21.52,34.939 21.074,34.974 C20.914,34.988 20.755,34.997 20.597,35.002 C20.551,35.004 20.506,35.006 20.46,35.007 C20.335,35.008 20.211,35.006 20.087,35.001 C20.042,35 19.998,34.998 19.953,34.995 C19.81,34.988 19.667,34.976 19.524,34.959 C19.522,34.959 19.519,34.959 19.516,34.958 C17.395,34.713 15.486,33.522 14.228,31.24 C13.549,30.006 13.281,28.959 13.22,28.11 C13.142,28.548 13.119,28.852 13.119,28.852 C13.035,27.48 13.179,26.568 13.362,25.982 C13.114,26.449 12.99,26.862 12.99,26.862 C13.166,25.815 13.383,25.126 13.597,24.669 C13.611,24.603 13.731,24.335 13.963,24.013 C13.965,23.972 13.966,23.931 13.966,23.885 C13.833,21.923 14.722,21.203 14.722,21.203 C14.723,21.209 14.724,21.215 14.724,21.22 C14.725,21.22 14.727,21.218 14.727,21.218 C14.75,21.839 15.175,22.356 15.467,22.632 C15.62,22.665 15.754,22.677 15.863,22.676 C16.283,22.58 16.763,22.57 17.306,22.701 C17.965,21.817 19.4,21.75 19.285,21.82 C19.297,21.824 19.3,21.829 19.289,21.835 C18.73,22.166 18.39,22.654 18.272,23.34 C18.357,23.533 18.626,24.039 19.114,24.037 C19.433,24.036 19.663,24.036 19.832,24.04 C19.844,24.041 19.856,24.041 19.867,24.041 C19.886,24.042 19.904,24.043 19.922,24.043 C19.934,24.044 19.945,24.044 19.956,24.045 C19.972,24.045 19.988,24.046 20.003,24.047 C20.02,24.048 20.036,24.049 20.052,24.051 C20.067,24.052 20.081,24.053 20.094,24.055 C20.103,24.056 20.112,24.057 20.121,24.058 C20.13,24.059 20.139,24.061 20.147,24.062 C20.155,24.063 20.162,24.064 20.169,24.066 C20.176,24.067 20.183,24.069 20.19,24.07 C20.199,24.072 20.207,24.075 20.214,24.077 C20.221,24.08 20.227,24.082 20.232,24.084 C20.237,24.086 20.242,24.088 20.246,24.091 C20.249,24.093 20.253,24.095 20.256,24.097 C20.259,24.099 20.262,24.102 20.265,24.104 C20.268,24.107 20.27,24.109 20.272,24.111 C20.276,24.115 20.279,24.119 20.281,24.124 C20.283,24.126 20.284,24.129 20.285,24.132 C20.287,24.136 20.289,24.14 20.29,24.144 C20.291,24.147 20.291,24.15 20.292,24.153 C20.293,24.157 20.293,24.161 20.294,24.166 C20.294,24.169 20.295,24.171 20.295,24.174 C20.296,24.181 20.296,24.189 20.296,24.196 C20.299,24.239 20.298,24.278 20.296,24.314 C20.295,24.328 20.294,24.341 20.293,24.354 C20.291,24.376 20.289,24.396 20.286,24.416 C20.281,24.444 20.276,24.47 20.269,24.494 C20.268,24.5 20.267,24.507 20.265,24.513 L20.265,24.513 L20.265,24.515 C20.264,24.516 20.264,24.517 20.264,24.518 C20.262,24.523 20.261,24.528 20.259,24.533 C20.257,24.541 20.255,24.548 20.252,24.555 C20.251,24.558 20.25,24.562 20.249,24.565 C20.243,24.581 20.237,24.596 20.231,24.61 C20.226,24.622 20.22,24.634 20.214,24.645 C20.207,24.658 20.201,24.671 20.193,24.682 C20.186,24.694 20.178,24.704 20.171,24.715 C20.165,24.722 20.16,24.728 20.154,24.735 C20.15,24.74 20.146,24.746 20.142,24.751 C20.14,24.753 20.138,24.756 20.136,24.758 C20.129,24.766 20.122,24.775 20.115,24.782 C20.108,24.789 20.101,24.795 20.094,24.801 L20.085,24.81 C20.082,24.812 20.08,24.814 20.077,24.817 C20.075,24.818 20.074,24.819 20.072,24.821 C20.067,24.825 20.062,24.83 20.056,24.834 C20.046,24.842 20.037,24.85 20.028,24.856 C19.948,24.92 18.851,25.59 18.811,25.781 C18.809,25.788 18.805,25.791 18.8,25.792 C18.85,25.943 18.881,26.108 18.9,26.267 C18.933,26.426 18.946,26.556 18.926,26.599 C18.929,26.713 18.929,26.813 18.926,26.889 C18.71,26.772 18.504,26.695 18.265,26.652 C18.124,26.71 17.874,26.784 17.791,27.028 C17.764,27.109 17.743,27.2 17.725,27.295 C17.733,27.554 17.808,27.925 18.522,28.37 C19.464,28.958 20.081,28.377 20.579,28.24 C21.285,28.046 21.807,28.402 22.022,28.662 C22.237,28.922 22.053,29.214 21.776,29.149 C21.5,29.084 21.192,29.358 20.671,29.733 C20.193,30.107 19.116,30.257 18.546,30.128 C18.547,30.13 18.549,30.131 18.55,30.133 C19.665,30.936 22.129,32.738 24.215,29.37 C24.578,28.668 24.05,30.485 24.109,30.446 C24.857,29.95 25.016,28.148 24.866,27.012 C25.336,27.235 25.367,27.753 25.398,27.656 C25.637,26.899 25.701,25.376 25.45,24.573 C25.831,24.688 26.139,25.365 26.139,25.365 C25.565,22.408 22.755,22.049 22.789,22.038 C23.543,21.809 24.302,21.809 24.302,21.809 C23.985,21.351 22.2,21.031 22.194,21.023 L22.195,21.022 C22.183,21.021 22.171,21.02 22.159,21.019 L22.203,21.019 C22.301,20.99 23.179,20.836 24.803,21.396 C26.267,21.902 26.82,23.491 26.82,23.491 C26.82,23.491 26.877,23.042 26.565,22.205 C26.566,22.204 26.774,22.194 27.24,23.438 C27.544,24.251 27.793,26.423 27.793,26.423 L27.966,25.25 C27.966,25.25 28.643,33.169 22.416,34.755 Z" id="Shape" fill="#FFFFFF" fill-rule="nonzero"></path>
        <rect id="Rectangle-path" fill="#A4E75E" fill-rule="nonzero" x="6" y="47" width="109" height="33"></rect>
        <path d="M47.5,72 C43.358,72 40,68.642 40,64.5 C40,60.358 43.358,57 47.5,57 C51.642,57 55,60.358 55,64.5 C55,68.642 51.642,72 47.5,72 Z M51.491,60.006 L49.63,60.006 L47.5,63.132 L45.37,60.006 L43.509,60.006 L46.569,64.498 L43.509,68.991 L45.37,68.991 L47.5,65.864 L49.63,68.991 L51.491,68.991 L48.431,64.498 L51.491,60.006 Z" id="Shape" fill="#555555" fill-rule="nonzero"></path>
        <path d="M130.5,36 C130.362,36 130.228,35.987 130.091,35.979 L133.839,29.753 L133.771,29.715 C133.912,29.335 134,28.929 134,28.5 C134,27.519 133.594,26.635 132.944,26 L137.564,26 C137.841,26.783 138,27.622 138,28.5 C138,32.642 134.642,36 130.5,36 Z M131,25.05 C130.835,25.027 130.671,25 130.5,25 C128.57,25 127.007,26.562 127.001,28.49 L123.753,25.242 C124.966,22.734 127.527,21 130.5,21 C133.377,21 135.873,22.622 137.131,25 L131,25 L131,25.05 Z M128,28.5 C128,27.119 129.119,26 130.5,26 C131.881,26 133,27.119 133,28.5 C133,29.016 132.843,29.496 132.575,29.894 L132.572,29.899 C132.123,30.563 131.363,31 130.5,31 C129.814,31 129.194,30.723 128.742,30.276 L128.765,30.253 L128.512,30.001 C128.195,29.582 128,29.066 128,28.5 Z M128.031,30.98 L128.035,30.983 L128.035,30.983 C128.668,31.611 129.538,32 130.5,32 C130.807,32 131.1,31.948 131.384,31.874 L128.991,35.848 C125.572,35.15 123,32.125 123,28.5 C123,27.728 123.117,26.983 123.334,26.283 L128.02,30.969 C128.024,30.972 128.028,30.976 128.031,30.98 Z" id="Shape" fill="#FFFFFF" fill-rule="nonzero"></path>
        <rect id="Rectangle-path" fill="#A4E75E" fill-rule="nonzero" x="116" y="47" width="109" height="33"></rect>
        <path d="M247.947,23.453 C247.913,23.595 247.737,23.57 247.77,23.419 C247.972,22.831 248.434,21.403 247.594,20.723 C246.476,19.81 244.153,20.953 242.91,21.725 C245.961,22.506 247.837,24.549 247.837,27.683 C247.837,27.952 247.879,28.196 247.862,28.54 L238.774,28.548 C238.833,30.22 239.74,31.349 241.059,31.349 C242.109,31.349 242.781,30.413 242.982,29.422 L247.77,29.43 C246.897,32.236 244.452,34.566 240.966,34.566 C240.461,34.566 239.981,34.532 239.526,34.467 C237.636,35.703 235.289,36.676 233.978,35.851 C232.247,34.759 233.112,31.785 234.137,29.669 L234.139,29.672 C235.757,26.314 238.252,23.981 239.597,23.175 C239.589,23.175 239.589,23.201 239.597,23.175 C239.715,23.117 239.639,22.965 239.513,23.024 C238.713,23.44 235.697,25.015 233.735,28.088 C233.735,28.072 233.734,28.055 233.734,28.039 C233.734,26.107 234.507,24.435 235.901,23.159 C237.127,22.05 238.74,21.462 240.739,21.462 C241.235,21.462 241.71,21.501 242.164,21.572 C243.746,20.648 246.614,19.281 247.879,20.42 C248.493,20.975 248.367,22.394 247.947,23.453 Z M236.304,33.188 C235.72,32.743 235.225,32.21 234.828,31.617 C234.175,33.092 233.849,34.604 234.591,35.162 C235.585,35.908 237.616,35.272 239.09,34.393 C238.02,34.182 237.093,33.781 236.304,33.188 Z M240.916,24.771 C239.824,24.771 238.782,25.089 238.757,26.542 L243.405,26.542 C243.405,25.122 242.067,24.771 240.916,24.771 Z" id="Shape" fill="#FFFFFF" fill-rule="nonzero"></path>
        <rect id="Rectangle-path" fill="#A4E75E" fill-rule="nonzero" x="226" y="47" width="109" height="33"></rect>
        <path d="M273.554,63.75 C272.915,64.05 271.913,64.395 270.682,64.395 C269.501,64.395 268.654,63.922 267.877,63.398 L269.34,58.376 C270.152,58.889 270.997,59.35 272.054,59.35 C273.306,59.35 274.318,59.022 275,58.708 L273.554,63.75 Z M267.307,63.006 C266.554,62.488 265.804,62.023 264.8,62.023 C263.552,62.023 262.337,62.418 261.682,62.674 L263.163,57.597 C263.66,57.355 264.632,57 266.064,57 C267.101,57 267.935,57.478 268.758,58.003 L267.307,63.006 Z M267.109,63.688 L265.647,68.728 C264.866,68.241 264.094,67.801 263.079,67.801 C261.855,67.801 260.663,68.181 260,68.436 L261.46,63.432 C261.914,63.193 262.924,62.778 264.473,62.778 C265.478,62.778 266.301,63.206 267.109,63.688 Z M267.69,64.04 C268.538,64.549 269.414,65.02 270.508,65.02 C271.737,65.02 272.713,64.698 273.372,64.383 L271.923,69.436 C271.313,69.692 270.317,70 269.048,70 C267.874,70 267.013,69.567 266.22,69.085 L267.69,64.04 Z" id="Shape" fill="#555555" fill-rule="nonzero"></path>
        <path d="M346.386,23.968 C344.604,25.077 343.585,26.654 343.585,26.654 C343.585,26.654 343.849,23.348 346.386,21.413 C347.395,20.644 348.774,20 350.63,20 C351.327,20 352.789,20.122 354.106,20.933 C355.423,21.745 355.955,22.425 356.548,23.42 C356.803,23.85 357.012,24.401 357.142,24.934 C357.385,25.931 357.415,27.124 357.415,27.124 L357.415,28.695 L348.005,28.695 C348.005,28.695 347.776,31.856 352.103,31.856 C353.608,31.856 354.135,31.62 354.63,31.473 C355.404,31.244 356.153,30.732 356.153,30.732 L356.154,33.891 C356.154,33.891 354.383,34.982 351.707,34.982 C350.954,34.982 350.16,34.919 349.395,34.67 C348.726,34.452 347.325,33.867 346.386,32.494 C346.054,32.009 345.695,31.363 345.517,30.731 C345.324,30.049 345.327,29.385 345.327,29.021 C345.327,27.655 345.794,26.35 346.603,25.408 C347.651,24.188 348.978,23.65 348.978,23.65 C348.978,23.65 348.546,24.154 348.28,24.78 C348.015,25.407 347.941,26.038 347.941,26.038 L353.254,26.038 C353.254,26.038 353.565,22.863 350.247,22.863 C348.998,22.863 347.464,23.297 346.386,23.968 Z" id="Shape" fill="#FFFFFF" fill-rule="nonzero"></path>
        <rect id="Rectangle-path" fill="#A4E75E" fill-rule="nonzero" x="336" y="47" width="109" height="33"></rect>
        <path d="M383.554,63.75 C382.915,64.05 381.913,64.395 380.682,64.395 C379.501,64.395 378.654,63.922 377.877,63.398 L379.34,58.376 C380.152,58.889 380.997,59.35 382.054,59.35 C383.306,59.35 384.318,59.022 385,58.708 L383.554,63.75 Z M377.307,63.006 C376.554,62.488 375.804,62.023 374.8,62.023 C373.552,62.023 372.337,62.418 371.682,62.674 L373.163,57.597 C373.66,57.355 374.632,57 376.064,57 C377.101,57 377.935,57.478 378.758,58.003 L377.307,63.006 Z M377.109,63.688 L375.647,68.728 C374.866,68.241 374.094,67.801 373.079,67.801 C371.855,67.801 370.663,68.181 370,68.436 L371.46,63.432 C371.914,63.193 372.924,62.778 374.473,62.778 C375.478,62.778 376.301,63.206 377.109,63.688 Z M377.69,64.04 C378.538,64.549 379.414,65.02 380.508,65.02 C381.737,65.02 382.713,64.698 383.372,64.383 L381.923,69.436 C381.313,69.692 380.317,70 379.048,70 C377.874,70 377.013,69.567 376.22,69.085 L377.69,64.04 Z" id="Shape" fill="#555555" fill-rule="nonzero"></path>
        <rect id="Rectangle-path" fill="#A4E75E" fill-rule="nonzero" x="446" y="47" width="109" height="33"></rect>
        <path d="M487.5,71 C483.358,71 480,67.642 480,63.5 C480,59.358 483.358,56 487.5,56 C491.642,56 495,59.358 495,63.5 C495,67.642 491.642,71 487.5,71 Z M491.491,59.006 L489.63,59.006 L487.5,62.132 L485.37,59.006 L483.509,59.006 L486.569,63.498 L483.509,67.991 L485.37,67.991 L487.5,64.864 L489.63,67.991 L491.491,67.991 L488.431,63.498 L491.491,59.006 Z" id="Shape" fill="#555555" fill-rule="nonzero"></path>
        <path d="M458,37 C453.581722,37 450,33.418278 450,29 C450,24.581722 453.581722,21 458,21 C462.418278,21 466,24.581722 466,29 C466,33.418278 462.418278,37 458,37 Z M458,35.2857143 C461.471504,35.2857143 464.285714,32.4715041 464.285714,29 C464.285714,25.5284959 461.471504,22.7142857 458,22.7142857 C454.528496,22.7142857 451.714286,25.5284959 451.714286,29 C451.714286,32.4715041 454.528496,35.2857143 458,35.2857143 Z" id="Combined-Shape" fill="#FFFFFF"></path>
        <polygon id="Rectangle" fill="#FFFFFF" transform="translate(458.066714, 29.106619) rotate(260.000000) translate(-458.066714, -29.106619) " points="454.556651 25.3641024 459.138663 27.9022727 461.576777 32.8491347 456.89442 30.335275"></polygon>
        <path d="M158.5,72 C154.358,72 151,68.642 151,64.5 C151,60.358 154.358,57 158.5,57 C162.642,57 166,60.358 166,64.5 C166,68.642 162.642,72 158.5,72 Z M162.491,60.006 L160.63,60.006 L158.5,63.132 L156.37,60.006 L154.509,60.006 L157.569,64.498 L154.509,68.991 L156.37,68.991 L158.5,65.864 L160.63,68.991 L162.491,68.991 L159.431,64.498 L162.491,60.006 Z" id="Shape" fill="#555555" fill-rule="nonzero"></path>
        <g id="TEXT-Copy" transform="translate(13.000000, 22.000000)">
            <path d="M31.44,1.504 L37.488,1.504 L37.488,2.624 L32.768,2.624 L32.768,6.176 L36.768,6.176 L36.768,7.296 L32.768,7.296 L32.768,12 L31.44,12 L31.44,1.504 Z M39.888,2.624 C39.6319987,2.624 39.4160009,2.5440008 39.24,2.384 C39.0639991,2.2239992 38.976,2.02133456 38.976,1.776 C38.976,1.51999872 39.0639991,1.31466744 39.24,1.16 C39.4160009,1.00533256 39.6319987,0.928 39.888,0.928 C40.1440013,0.928 40.3599991,1.00533256 40.536,1.16 C40.7120009,1.31466744 40.8,1.51999872 40.8,1.776 C40.8,2.02133456 40.7120009,2.2239992 40.536,2.384 C40.3599991,2.5440008 40.1440013,2.624 39.888,2.624 Z M39.216,4.224 L40.528,4.224 L40.528,12 L39.216,12 L39.216,4.224 Z M43.152,4.224 L44.24,4.224 L44.352,5.632 L44.4,5.632 C44.666668,5.14133088 44.9893314,4.75200144 45.368,4.464 C45.7466686,4.17599856 46.1599978,4.032 46.608,4.032 C46.9173349,4.032 47.1946654,4.0853328 47.44,4.192 L47.184,5.344 C47.0559994,5.30133312 46.9386672,5.26933344 46.832,5.248 C46.7253328,5.22666656 46.5920008,5.216 46.432,5.216 C46.1013317,5.216 45.7573351,5.349332 45.4,5.616 C45.0426649,5.882668 44.730668,6.34666336 44.464,7.008 L44.464,12 L43.152,12 L43.152,4.224 Z M47.968,8.128 C47.968,7.4879968 48.0666657,6.9146692 48.264,6.408 C48.4613343,5.9013308 48.722665,5.47200176 49.048,5.12 C49.373335,4.76799824 49.7439979,4.4986676 50.16,4.312 C50.5760021,4.1253324 51.0079978,4.032 51.456,4.032 C51.9466691,4.032 52.3866647,4.11733248 52.776,4.288 C53.1653353,4.45866752 53.4906654,4.7039984 53.752,5.024 C54.0133346,5.3440016 54.2133326,5.72799776 54.352,6.176 C54.4906674,6.62400224 54.56,7.12533056 54.56,7.68 C54.56,7.96800144 54.5440002,8.20799904 54.512,8.4 L49.264,8.4 C49.3173336,9.24267088 49.5759977,9.90933088 50.04,10.4 C50.5040023,10.8906691 51.1093296,11.136 51.856,11.136 C52.2293352,11.136 52.5733318,11.0800006 52.888,10.968 C53.2026682,10.8559994 53.5039986,10.7093342 53.792,10.528 L54.256,11.392 C53.914665,11.6053344 53.5360021,11.7919992 53.12,11.952 C52.7039979,12.1120008 52.229336,12.192 51.696,12.192 C51.1733307,12.192 50.6853356,12.0986676 50.232,11.912 C49.7786644,11.7253324 49.3840017,11.4586684 49.048,11.112 C48.7119983,10.7653316 48.448001,10.3413358 48.256,9.84 C48.063999,9.33866416 47.968,8.7680032 47.968,8.128 Z M53.408,7.536 C53.408,6.735996 53.2400017,6.12533544 52.904,5.704 C52.5679983,5.28266456 52.096003,5.072 51.488,5.072 C51.2106653,5.072 50.9466679,5.12799944 50.696,5.24 C50.4453321,5.35200056 50.2186677,5.51199896 50.016,5.72 C49.8133323,5.92800104 49.645334,6.18399848 49.512,6.488 C49.378666,6.79200152 49.2906669,7.14133136 49.248,7.536 L53.408,7.536 Z M59.984,1.68 C59.6959986,1.55199936 59.4026682,1.488 59.104,1.488 C58.378663,1.488 58.016,1.98932832 58.016,2.992 L58.016,4.224 L59.664,4.224 L59.664,5.296 L58.016,5.296 L58.016,12 L56.704,12 L56.704,5.296 L55.648,5.296 L55.648,4.304 L56.704,4.224 L56.704,2.992 C56.704,2.191996 56.8879982,1.56266896 57.256,1.104 C57.6240018,0.64533104 58.1973294,0.416 58.976,0.416 C59.2213346,0.416 59.4533322,0.43999976 59.672,0.488 C59.8906678,0.53600024 60.0906658,0.59733296 60.272,0.672 L59.984,1.68 Z M60.416,8.128 C60.416,7.47733008 60.5146657,6.8986692 60.712,6.392 C60.9093343,5.8853308 61.1733317,5.45600176 61.504,5.104 C61.8346683,4.75199824 62.2159978,4.48533424 62.648,4.304 C63.0800022,4.12266576 63.5359976,4.032 64.016,4.032 C64.4960024,4.032 64.9519978,4.12266576 65.384,4.304 C65.8160022,4.48533424 66.1973317,4.75199824 66.528,5.104 C66.8586683,5.45600176 67.1226657,5.8853308 67.32,6.392 C67.5173343,6.8986692 67.616,7.47733008 67.616,8.128 C67.616,8.7680032 67.5173343,9.3413308 67.32,9.848 C67.1226657,10.3546692 66.8586683,10.7813316 66.528,11.128 C66.1973317,11.4746684 65.8160022,11.7386658 65.384,11.92 C64.9519978,12.1013342 64.4960024,12.192 64.016,12.192 C63.5359976,12.192 63.0800022,12.1013342 62.648,11.92 C62.2159978,11.7386658 61.8346683,11.4746684 61.504,11.128 C61.1733317,10.7813316 60.9093343,10.3546692 60.712,9.848 C60.5146657,9.3413308 60.416,8.7680032 60.416,8.128 Z M61.776,8.128 C61.776,8.57600224 61.8293328,8.98133152 61.936,9.344 C62.0426672,9.70666848 62.1946657,10.0186654 62.392,10.28 C62.5893343,10.5413346 62.8266653,10.7439993 63.104,10.888 C63.3813347,11.0320007 63.6853317,11.104 64.016,11.104 C64.3466683,11.104 64.6506653,11.0320007 64.928,10.888 C65.2053347,10.7439993 65.4426657,10.5413346 65.64,10.28 C65.8373343,10.0186654 65.9893328,9.70666848 66.096,9.344 C66.2026672,8.98133152 66.256,8.57600224 66.256,8.128 C66.256,7.67999776 66.2026672,7.27200184 66.096,6.904 C65.9893328,6.53599816 65.8373343,6.218668 65.64,5.952 C65.4426657,5.685332 65.2053347,5.48000072 64.928,5.336 C64.6506653,5.19199928 64.3466683,5.12 64.016,5.12 C63.6853317,5.12 63.3813347,5.19199928 63.104,5.336 C62.8266653,5.48000072 62.5893343,5.685332 62.392,5.952 C62.1946657,6.218668 62.0426672,6.53599816 61.936,6.904 C61.8293328,7.27200184 61.776,7.67999776 61.776,8.128 Z M70.848,7.936 L68.496,4.224 L69.92,4.224 L70.96,5.936 C71.0773339,6.1493344 71.1999994,6.36533224 71.328,6.584 C71.4560006,6.80266776 71.5893326,7.0186656 71.728,7.232 L71.792,7.232 C71.9093339,7.0186656 72.0266661,6.80266776 72.144,6.584 C72.2613339,6.36533224 72.3786661,6.1493344 72.496,5.936 L73.44,4.224 L74.816,4.224 L72.464,8.08 L74.992,12 L73.568,12 L72.432,10.192 L72.016,9.488 C71.8773326,9.25333216 71.7333341,9.02400112 71.584,8.8 L71.52,8.8 C71.3813326,9.02400112 71.2480006,9.25066552 71.12,9.48 C70.9919994,9.70933448 70.8640006,9.94666544 70.736,10.192 L69.68,12 L68.304,12 L70.848,7.936 Z" id="Firefox" fill="#FFFFFF"></path>
            <path d="M1.424,44.28 C1.73333488,44.5573347 2.06666488,44.7946657 2.424,44.992 C2.78133512,45.1893343 3.17866448,45.288 3.616,45.288 C4.13866928,45.288 4.55466512,45.154668 4.864,44.888 C5.17333488,44.621332 5.328,44.2266693 5.328,43.704 C5.328,43.1919974 5.1813348,42.802668 4.888,42.536 C4.5946652,42.269332 4.2080024,42.136 3.728,42.136 C3.57866592,42.136 3.44533392,42.1439999 3.328,42.16 C3.21066608,42.1760001 3.09600056,42.2053331 2.984,42.248 C2.87199944,42.2906669 2.75466728,42.3439997 2.632,42.408 C2.50933272,42.4720003 2.37333408,42.5519995 2.224,42.648 L1.168,41.976 L1.456,36.84 L7.216,36.84 L7.216,38.824 L3.488,38.824 L3.312,40.728 C3.50400096,40.6426662 3.68799912,40.5813335 3.864,40.544 C4.04000088,40.5066665 4.2346656,40.488 4.448,40.488 C4.88533552,40.488 5.29866472,40.5519994 5.688,40.68 C6.07733528,40.8080006 6.42133184,40.9999987 6.72,41.256 C7.01866816,41.5120013 7.25333248,41.8373314 7.424,42.232 C7.59466752,42.6266686 7.68,43.0959973 7.68,43.64 C7.68,44.2053362 7.57866768,44.7066645 7.376,45.144 C7.17333232,45.5813355 6.90133504,45.9519985 6.56,46.256 C6.21866496,46.5600015 5.8213356,46.7919992 5.368,46.952 C4.9146644,47.1120008 4.44266912,47.192 3.952,47.192 C3.11999584,47.192 2.41600288,47.0560014 1.84,46.784 C1.26399712,46.5119986 0.77333536,46.1733354 0.368,45.768 L1.424,44.28 Z M9.568,45.096 L11.776,45.096 L11.776,39.224 L9.872,39.224 L9.872,37.768 C10.4266694,37.6613328 10.8959981,37.5333341 11.28,37.384 C11.6640019,37.2346659 12.0373315,37.0533344 12.4,36.84 L14.128,36.84 L14.128,45.096 L16.032,45.096 L16.032,47 L9.568,47 L9.568,45.096 Z" id="51" fill="#555555"></path>
            <path d="M49.264,45.912 L51.6,45.912 L51.6,38.392 L49.744,38.392 L49.744,37.544 C50.2133357,37.4586662 50.6213316,37.3546673 50.968,37.232 C51.3146684,37.1093327 51.6266653,36.9626675 51.904,36.792 L52.912,36.792 L52.912,45.912 L55.024,45.912 L55.024,47 L49.264,47 L49.264,45.912 Z M59.936,47.192 C58.9013282,47.192 58.0960029,46.7333379 57.52,45.816 C56.9439971,44.8986621 56.656,43.5813419 56.656,41.864 C56.656,40.1466581 56.9439971,38.8400045 57.52,37.944 C58.0960029,37.0479955 58.9013282,36.6 59.936,36.6 C60.9600051,36.6 61.7599971,37.0479955 62.336,37.944 C62.9120029,38.8400045 63.2,40.1466581 63.2,41.864 C63.2,43.5813419 62.9120029,44.8986621 62.336,45.816 C61.7599971,46.7333379 60.9600051,47.192 59.936,47.192 Z M59.936,46.136 C60.2346682,46.136 60.5039988,46.0533342 60.744,45.888 C60.9840012,45.7226658 61.1919991,45.4666684 61.368,45.12 C61.5440009,44.7733316 61.6799995,44.3306694 61.776,43.792 C61.8720005,43.2533306 61.92,42.6106704 61.92,41.864 C61.92,41.1173296 61.8720005,40.477336 61.776,39.944 C61.6799995,39.410664 61.5440009,38.9760017 61.368,38.64 C61.1919991,38.3039983 60.9840012,38.0560008 60.744,37.896 C60.5039988,37.7359992 60.2346682,37.656 59.936,37.656 C59.6373318,37.656 59.3653346,37.7359992 59.12,37.896 C58.8746654,38.0560008 58.6640009,38.3039983 58.488,38.64 C58.3119991,38.9760017 58.1760005,39.410664 58.08,39.944 C57.9839995,40.477336 57.936,41.1173296 57.936,41.864 C57.936,43.3573408 58.1199982,44.4426633 58.488,45.12 C58.8560018,45.7973367 59.3386637,46.136 59.936,46.136 Z M64.944,46.2 C64.944,45.8906651 65.0373324,45.6426676 65.224,45.456 C65.4106676,45.2693324 65.637332,45.176 65.904,45.176 C66.1600013,45.176 66.3813324,45.2693324 66.568,45.456 C66.7546676,45.6426676 66.848,45.8906651 66.848,46.2 C66.848,46.4880014 66.7546676,46.7253324 66.568,46.912 C66.3813324,47.0986676 66.1600013,47.192 65.904,47.192 C65.637332,47.192 65.4106676,47.0986676 65.224,46.912 C65.0373324,46.7253324 64.944,46.4880014 64.944,46.2 Z M69.152,45.912 L71.488,45.912 L71.488,38.392 L69.632,38.392 L69.632,37.544 C70.1013357,37.4586662 70.5093316,37.3546673 70.856,37.232 C71.2026684,37.1093327 71.5146653,36.9626675 71.792,36.792 L72.8,36.792 L72.8,45.912 L74.912,45.912 L74.912,47 L69.152,47 L69.152,45.912 Z M77.104,45.912 L79.44,45.912 L79.44,38.392 L77.584,38.392 L77.584,37.544 C78.0533357,37.4586662 78.4613316,37.3546673 78.808,37.232 C79.1546684,37.1093327 79.4666653,36.9626675 79.744,36.792 L80.752,36.792 L80.752,45.912 L82.864,45.912 L82.864,47 L77.104,47 L77.104,45.912 Z" id="10.11" fill="#555555"></path>
            <path d="M140.832,6.752 C140.832,5.90932912 140.949332,5.15200336 141.184,4.48 C141.418668,3.80799664 141.743998,3.23733568 142.16,2.768 C142.576002,2.29866432 143.06933,1.93866792 143.64,1.688 C144.21067,1.43733208 144.831997,1.312 145.504,1.312 C146.144003,1.312 146.703998,1.44266536 147.184,1.704 C147.664002,1.96533464 148.058665,2.26666496 148.368,2.608 L147.616,3.456 C147.338665,3.15733184 147.032002,2.92000088 146.696,2.744 C146.359998,2.56799912 145.968002,2.48 145.52,2.48 C145.018664,2.48 144.565335,2.57866568 144.16,2.776 C143.754665,2.97333432 143.408001,3.25599816 143.12,3.624 C142.831999,3.99200184 142.608001,4.43733072 142.448,4.96 C142.287999,5.48266928 142.208,6.06933008 142.208,6.72 C142.208,7.38133664 142.285333,7.97599736 142.44,8.504 C142.594667,9.03200264 142.810665,9.4826648 143.088,9.856 C143.365335,10.2293352 143.703998,10.5173323 144.104,10.72 C144.504002,10.9226677 144.954664,11.024 145.456,11.024 C145.968003,11.024 146.413331,10.9226677 146.792,10.72 C147.170669,10.5173323 147.530665,10.2293352 147.872,9.856 L148.624,10.672 C148.207998,11.1520024 147.738669,11.525332 147.216,11.792 C146.693331,12.058668 146.096003,12.192 145.424,12.192 C144.762663,12.192 144.152003,12.0693346 143.592,11.824 C143.031997,11.5786654 142.546669,11.2240023 142.136,10.76 C141.725331,10.2959977 141.405334,9.72533672 141.176,9.048 C140.946666,8.37066328 140.832,7.6053376 140.832,6.752 Z M150.448,0.608 L151.76,0.608 L151.76,3.712 L151.712,5.312 C152.085335,4.95999824 152.474665,4.65866792 152.88,4.408 C153.285335,4.15733208 153.759997,4.032 154.304,4.032 C155.125337,4.032 155.725331,4.28799744 156.104,4.8 C156.482669,5.31200256 156.672,6.06932832 156.672,7.072 L156.672,12 L155.36,12 L155.36,7.248 C155.36,6.51199632 155.242668,5.98133496 155.008,5.656 C154.773332,5.33066504 154.400003,5.168 153.888,5.168 C153.482665,5.168 153.125335,5.26933232 152.816,5.472 C152.506665,5.67466768 152.154669,5.97333136 151.76,6.368 L151.76,12 L150.448,12 L150.448,0.608 Z M159.152,4.224 L160.24,4.224 L160.352,5.632 L160.4,5.632 C160.666668,5.14133088 160.989331,4.75200144 161.368,4.464 C161.746669,4.17599856 162.159998,4.032 162.608,4.032 C162.917335,4.032 163.194665,4.0853328 163.44,4.192 L163.184,5.344 C163.055999,5.30133312 162.938667,5.26933344 162.832,5.248 C162.725333,5.22666656 162.592001,5.216 162.432,5.216 C162.101332,5.216 161.757335,5.349332 161.4,5.616 C161.042665,5.882668 160.730668,6.34666336 160.464,7.008 L160.464,12 L159.152,12 L159.152,4.224 Z M163.968,8.128 C163.968,7.47733008 164.066666,6.8986692 164.264,6.392 C164.461334,5.8853308 164.725332,5.45600176 165.056,5.104 C165.386668,4.75199824 165.767998,4.48533424 166.2,4.304 C166.632002,4.12266576 167.087998,4.032 167.568,4.032 C168.048002,4.032 168.503998,4.12266576 168.936,4.304 C169.368002,4.48533424 169.749332,4.75199824 170.08,5.104 C170.410668,5.45600176 170.674666,5.8853308 170.872,6.392 C171.069334,6.8986692 171.168,7.47733008 171.168,8.128 C171.168,8.7680032 171.069334,9.3413308 170.872,9.848 C170.674666,10.3546692 170.410668,10.7813316 170.08,11.128 C169.749332,11.4746684 169.368002,11.7386658 168.936,11.92 C168.503998,12.1013342 168.048002,12.192 167.568,12.192 C167.087998,12.192 166.632002,12.1013342 166.2,11.92 C165.767998,11.7386658 165.386668,11.4746684 165.056,11.128 C164.725332,10.7813316 164.461334,10.3546692 164.264,9.848 C164.066666,9.3413308 163.968,8.7680032 163.968,8.128 Z M165.328,8.128 C165.328,8.57600224 165.381333,8.98133152 165.488,9.344 C165.594667,9.70666848 165.746666,10.0186654 165.944,10.28 C166.141334,10.5413346 166.378665,10.7439993 166.656,10.888 C166.933335,11.0320007 167.237332,11.104 167.568,11.104 C167.898668,11.104 168.202665,11.0320007 168.48,10.888 C168.757335,10.7439993 168.994666,10.5413346 169.192,10.28 C169.389334,10.0186654 169.541333,9.70666848 169.648,9.344 C169.754667,8.98133152 169.808,8.57600224 169.808,8.128 C169.808,7.67999776 169.754667,7.27200184 169.648,6.904 C169.541333,6.53599816 169.389334,6.218668 169.192,5.952 C168.994666,5.685332 168.757335,5.48000072 168.48,5.336 C168.202665,5.19199928 167.898668,5.12 167.568,5.12 C167.237332,5.12 166.933335,5.19199928 166.656,5.336 C166.378665,5.48000072 166.141334,5.685332 165.944,5.952 C165.746666,6.218668 165.594667,6.53599816 165.488,6.904 C165.381333,7.27200184 165.328,7.67999776 165.328,8.128 Z M173.216,4.224 L174.304,4.224 L174.416,5.344 L174.464,5.344 C174.805335,4.9706648 175.175998,4.65866792 175.576,4.408 C175.976002,4.15733208 176.410664,4.032 176.88,4.032 C177.477336,4.032 177.943998,4.16266536 178.28,4.424 C178.616002,4.68533464 178.863999,5.05066432 179.024,5.52 C179.429335,5.07199776 179.837331,4.71200136 180.248,4.44 C180.658669,4.16799864 181.103998,4.032 181.584,4.032 C182.384004,4.032 182.978665,4.28799744 183.368,4.8 C183.757335,5.31200256 183.952,6.06932832 183.952,7.072 L183.952,12 L182.64,12 L182.64,7.248 C182.64,6.51199632 182.522668,5.98133496 182.288,5.656 C182.053332,5.33066504 181.690669,5.168 181.2,5.168 C180.61333,5.168 179.96267,5.567996 179.248,6.368 L179.248,12 L177.936,12 L177.936,7.248 C177.936,6.51199632 177.818668,5.98133496 177.584,5.656 C177.349332,5.33066504 176.981336,5.168 176.48,5.168 C175.89333,5.168 175.24267,5.567996 174.528,6.368 L174.528,12 L173.216,12 L173.216,4.224 Z M185.904,8.128 C185.904,7.4879968 186.002666,6.9146692 186.2,6.408 C186.397334,5.9013308 186.658665,5.47200176 186.984,5.12 C187.309335,4.76799824 187.679998,4.4986676 188.096,4.312 C188.512002,4.1253324 188.943998,4.032 189.392,4.032 C189.882669,4.032 190.322665,4.11733248 190.712,4.288 C191.101335,4.45866752 191.426665,4.7039984 191.688,5.024 C191.949335,5.3440016 192.149333,5.72799776 192.288,6.176 C192.426667,6.62400224 192.496,7.12533056 192.496,7.68 C192.496,7.96800144 192.48,8.20799904 192.448,8.4 L187.2,8.4 C187.253334,9.24267088 187.511998,9.90933088 187.976,10.4 C188.440002,10.8906691 189.04533,11.136 189.792,11.136 C190.165335,11.136 190.509332,11.0800006 190.824,10.968 C191.138668,10.8559994 191.439999,10.7093342 191.728,10.528 L192.192,11.392 C191.850665,11.6053344 191.472002,11.7919992 191.056,11.952 C190.639998,12.1120008 190.165336,12.192 189.632,12.192 C189.109331,12.192 188.621336,12.0986676 188.168,11.912 C187.714664,11.7253324 187.320002,11.4586684 186.984,11.112 C186.647998,10.7653316 186.384001,10.3413358 186.192,9.84 C185.999999,9.33866416 185.904,8.7680032 185.904,8.128 Z M191.344,7.536 C191.344,6.735996 191.176002,6.12533544 190.84,5.704 C190.503998,5.28266456 190.032003,5.072 189.424,5.072 C189.146665,5.072 188.882668,5.12799944 188.632,5.24 C188.381332,5.35200056 188.154668,5.51199896 187.952,5.72 C187.749332,5.92800104 187.581334,6.18399848 187.448,6.488 C187.314666,6.79200152 187.226667,7.14133136 187.184,7.536 L191.344,7.536 Z" id="Chrome" fill="#FFFFFF"></path>
            <path d="M111.424,44.28 C111.733335,44.5573347 112.066665,44.7946657 112.424,44.992 C112.781335,45.1893343 113.178664,45.288 113.616,45.288 C114.138669,45.288 114.554665,45.154668 114.864,44.888 C115.173335,44.621332 115.328,44.2266693 115.328,43.704 C115.328,43.1919974 115.181335,42.802668 114.888,42.536 C114.594665,42.269332 114.208002,42.136 113.728,42.136 C113.578666,42.136 113.445334,42.1439999 113.328,42.16 C113.210666,42.1760001 113.096001,42.2053331 112.984,42.248 C112.871999,42.2906669 112.754667,42.3439997 112.632,42.408 C112.509333,42.4720003 112.373334,42.5519995 112.224,42.648 L111.168,41.976 L111.456,36.84 L117.216,36.84 L117.216,38.824 L113.488,38.824 L113.312,40.728 C113.504001,40.6426662 113.687999,40.5813335 113.864,40.544 C114.040001,40.5066665 114.234666,40.488 114.448,40.488 C114.885336,40.488 115.298665,40.5519994 115.688,40.68 C116.077335,40.8080006 116.421332,40.9999987 116.72,41.256 C117.018668,41.5120013 117.253332,41.8373314 117.424,42.232 C117.594668,42.6266686 117.68,43.0959973 117.68,43.64 C117.68,44.2053362 117.578668,44.7066645 117.376,45.144 C117.173332,45.5813355 116.901335,45.9519985 116.56,46.256 C116.218665,46.5600015 115.821336,46.7919992 115.368,46.952 C114.914664,47.1120008 114.442669,47.192 113.952,47.192 C113.119996,47.192 112.416003,47.0560014 111.84,46.784 C111.263997,46.5119986 110.773335,46.1733354 110.368,45.768 L111.424,44.28 Z M122.896,45.432 C123.248002,45.432 123.549332,45.3013346 123.8,45.04 C124.050668,44.7786654 124.176,44.3600029 124.176,43.784 C124.176,43.2399973 124.050668,42.8586678 123.8,42.64 C123.549332,42.4213322 123.232002,42.312 122.848,42.312 C122.591999,42.312 122.330668,42.3866659 122.064,42.536 C121.797332,42.6853341 121.546668,42.9466648 121.312,43.32 C121.365334,43.7253354 121.445333,44.061332 121.552,44.328 C121.658667,44.594668 121.781333,44.8106658 121.92,44.976 C122.058667,45.1413342 122.210666,45.2586663 122.376,45.328 C122.541334,45.3973337 122.714666,45.432 122.896,45.432 Z M124.944,39.272 C124.762666,39.079999 124.528001,38.9120007 124.24,38.768 C123.951999,38.6239993 123.658668,38.552 123.36,38.552 C123.082665,38.552 122.821335,38.6053328 122.576,38.712 C122.330665,38.8186672 122.114668,38.9973321 121.928,39.248 C121.741332,39.4986679 121.589334,39.8266646 121.472,40.232 C121.354666,40.6373354 121.285333,41.1333304 121.264,41.72 C121.392001,41.5493325 121.541332,41.397334 121.712,41.264 C121.882668,41.130666 122.058666,41.0186671 122.24,40.928 C122.421334,40.8373329 122.602666,40.7680002 122.784,40.72 C122.965334,40.6719998 123.135999,40.648 123.296,40.648 C123.733336,40.648 124.135998,40.7119994 124.504,40.84 C124.872002,40.9680006 125.191999,41.1599987 125.464,41.416 C125.736001,41.6720013 125.946666,41.9973314 126.096,42.392 C126.245334,42.7866686 126.32,43.250664 126.32,43.784 C126.32,44.317336 126.229334,44.7919979 126.048,45.208 C125.866666,45.6240021 125.624002,45.9813318 125.32,46.28 C125.015998,46.5786682 124.658669,46.8053326 124.248,46.96 C123.837331,47.1146674 123.402669,47.192 122.944,47.192 C122.453331,47.192 121.976002,47.096001 121.512,46.904 C121.047998,46.711999 120.637335,46.4133354 120.28,46.008 C119.922665,45.6026646 119.637334,45.0826698 119.424,44.448 C119.210666,43.8133302 119.104,43.0480045 119.104,42.152 C119.104,41.2026619 119.218666,40.3813368 119.448,39.688 C119.677334,38.9946632 119.981331,38.4240022 120.36,37.976 C120.738669,37.5279978 121.175998,37.1946678 121.672,36.976 C122.168002,36.7573322 122.682664,36.648 123.216,36.648 C123.888003,36.648 124.469331,36.7679988 124.96,37.008 C125.450669,37.2480012 125.855998,37.5333317 126.176,37.864 L124.944,39.272 Z" id="56" fill="#555555"></path>
            <path d="M251.44,1.504 L252.768,1.504 L252.768,12 L251.44,12 L251.44,1.504 Z M255.648,1.504 L261.696,1.504 L261.696,2.624 L256.976,2.624 L256.976,5.92 L260.96,5.92 L260.96,7.056 L256.976,7.056 L256.976,10.864 L261.856,10.864 L261.856,12 L255.648,12 L255.648,1.504 Z" id="IE" fill="#FFFFFF"></path>
            <path d="M221.12,45.096 L223.328,45.096 L223.328,39.224 L221.424,39.224 L221.424,37.768 C221.978669,37.6613328 222.447998,37.5333341 222.832,37.384 C223.216002,37.2346659 223.589332,37.0533344 223.952,36.84 L225.68,36.84 L225.68,45.096 L227.584,45.096 L227.584,47 L221.12,47 L221.12,45.096 Z M229.568,45.096 L231.776,45.096 L231.776,39.224 L229.872,39.224 L229.872,37.768 C230.426669,37.6613328 230.895998,37.5333341 231.28,37.384 C231.664002,37.2346659 232.037332,37.0533344 232.4,36.84 L234.128,36.84 L234.128,45.096 L236.032,45.096 L236.032,47 L229.568,47 L229.568,45.096 Z" id="11" fill="#555555"></path>
            <path d="M267.84,44.264 C267.84,44.5520014 267.895999,44.8133322 268.008,45.048 C268.120001,45.2826678 268.274666,45.4879991 268.472,45.664 C268.669334,45.8400009 268.901332,45.9759995 269.168,46.072 C269.434668,46.1680005 269.722665,46.216 270.032,46.216 C270.629336,46.216 271.111998,46.0506683 271.48,45.72 C271.848002,45.3893317 272.032,44.957336 272.032,44.424 C272.032,44.0933317 271.957334,43.8106678 271.808,43.576 C271.658666,43.3413322 271.456001,43.1360009 271.2,42.96 C270.943999,42.7839991 270.648002,42.6240007 270.312,42.48 C269.975998,42.3359993 269.626668,42.1893341 269.264,42.04 C268.858665,42.3173347 268.520001,42.6399982 268.248,43.008 C267.975999,43.3760018 267.84,43.7946643 267.84,44.264 Z M270.72,41.432 C271.061335,41.1226651 271.325332,40.797335 271.512,40.456 C271.698668,40.114665 271.792,39.7573352 271.792,39.384 C271.792,38.8719974 271.637335,38.4426684 271.328,38.096 C271.018665,37.7493316 270.581336,37.576 270.016,37.576 C269.535998,37.576 269.141335,37.7253318 268.832,38.024 C268.522665,38.3226682 268.368,38.7226642 268.368,39.224 C268.368,39.5333349 268.431999,39.7973322 268.56,40.016 C268.688001,40.2346678 268.861332,40.4293325 269.08,40.6 C269.298668,40.7706675 269.549332,40.922666 269.832,41.056 C270.114668,41.189334 270.410665,41.3146661 270.72,41.432 Z M266.656,44.392 C266.656,44.0613317 266.711999,43.7546681 266.824,43.472 C266.936001,43.1893319 267.079999,42.9333345 267.256,42.704 C267.432001,42.4746655 267.634666,42.2720009 267.864,42.096 C268.093334,41.9199991 268.330665,41.7680006 268.576,41.64 L268.576,41.576 C268.202665,41.309332 267.872001,40.9866686 267.584,40.608 C267.295999,40.2293314 267.152,39.7680027 267.152,39.224 C267.152,38.8293314 267.226666,38.4720016 267.376,38.152 C267.525334,37.8319984 267.727999,37.5573345 267.984,37.328 C268.240001,37.0986655 268.543998,36.9200006 268.896,36.792 C269.248002,36.6639994 269.631998,36.6 270.048,36.6 C270.496002,36.6 270.895998,36.666666 271.248,36.8 C271.600002,36.933334 271.901332,37.1199988 272.152,37.36 C272.402668,37.6000012 272.594666,37.8879983 272.728,38.224 C272.861334,38.5600017 272.928,38.9253314 272.928,39.32 C272.928,39.586668 272.882667,39.8426654 272.792,40.088 C272.701333,40.3333346 272.589334,40.5626656 272.456,40.776 C272.322666,40.9893344 272.173334,41.1813325 272.008,41.352 C271.842666,41.5226675 271.680001,41.6666661 271.52,41.784 L271.52,41.848 C271.744001,41.9760006 271.962666,42.1226658 272.176,42.288 C272.389334,42.4533342 272.578666,42.639999 272.744,42.848 C272.909334,43.056001 273.042666,43.293332 273.144,43.56 C273.245334,43.826668 273.296,44.130665 273.296,44.472 C273.296,44.8560019 273.216001,45.2133317 273.056,45.544 C272.895999,45.8746683 272.672001,46.1626654 272.384,46.408 C272.095999,46.6533346 271.749335,46.8453326 271.344,46.984 C270.938665,47.1226674 270.490669,47.192 270,47.192 C269.519998,47.192 269.074669,47.1226674 268.664,46.984 C268.253331,46.8453326 267.901335,46.6506679 267.608,46.4 C267.314665,46.1493321 267.082668,45.853335 266.912,45.512 C266.741332,45.170665 266.656,44.7973354 266.656,44.392 Z M274.992,46.2 C274.992,45.8906651 275.085332,45.6426676 275.272,45.456 C275.458668,45.2693324 275.685332,45.176 275.952,45.176 C276.208001,45.176 276.429332,45.2693324 276.616,45.456 C276.802668,45.6426676 276.896,45.8906651 276.896,46.2 C276.896,46.4880014 276.802668,46.7253324 276.616,46.912 C276.429332,47.0986676 276.208001,47.192 275.952,47.192 C275.685332,47.192 275.458668,47.0986676 275.272,46.912 C275.085332,46.7253324 274.992,46.4880014 274.992,46.2 Z M279.2,45.912 L281.536,45.912 L281.536,38.392 L279.68,38.392 L279.68,37.544 C280.149336,37.4586662 280.557332,37.3546673 280.904,37.232 C281.250668,37.1093327 281.562665,36.9626675 281.84,36.792 L282.848,36.792 L282.848,45.912 L284.96,45.912 L284.96,47 L279.2,47 L279.2,45.912 Z" id="8.1" fill="#555555"></path>
            <path d="M361.44,1.504 L367.488,1.504 L367.488,2.624 L362.768,2.624 L362.768,5.92 L366.752,5.92 L366.752,7.056 L362.768,7.056 L362.768,10.864 L367.648,10.864 L367.648,12 L361.44,12 L361.44,1.504 Z M369.184,8.128 C369.184,7.49866352 369.277332,6.9306692 369.464,6.424 C369.650668,5.9173308 369.898665,5.48800176 370.208,5.136 C370.517335,4.78399824 370.874665,4.51200096 371.28,4.32 C371.685335,4.12799904 372.111998,4.032 372.56,4.032 C373.008002,4.032 373.397332,4.1119992 373.728,4.272 C374.058668,4.4320008 374.394665,4.65066528 374.736,4.928 L374.672,3.6 L374.672,0.608 L376,0.608 L376,12 L374.912,12 L374.8,11.088 L374.752,11.088 C374.442665,11.3866682 374.088002,11.6453322 373.688,11.864 C373.287998,12.0826678 372.858669,12.192 372.4,12.192 C371.418662,12.192 370.637336,11.8400035 370.056,11.136 C369.474664,10.4319965 369.184,9.42933984 369.184,8.128 Z M370.544,8.112 C370.544,9.05067136 370.730665,9.78133072 371.104,10.304 C371.477335,10.8266693 372.00533,11.088 372.688,11.088 C373.050668,11.088 373.391998,11.0000009 373.712,10.824 C374.032002,10.6479991 374.351998,10.3786685 374.672,10.016 L374.672,5.952 C374.341332,5.65333184 374.024002,5.44266728 373.72,5.32 C373.415998,5.19733272 373.104002,5.136 372.784,5.136 C372.474665,5.136 372.184001,5.20799928 371.912,5.352 C371.639999,5.49600072 371.402668,5.69866536 371.2,5.96 C370.997332,6.22133464 370.837334,6.53333152 370.72,6.896 C370.602666,7.25866848 370.544,7.66399776 370.544,8.112 Z M379.184,13.312 C379.184,13.7280021 379.383998,14.0586654 379.784,14.304 C380.184002,14.5493346 380.735996,14.672 381.44,14.672 C381.813335,14.672 382.151998,14.6266671 382.456,14.536 C382.760002,14.4453329 383.018666,14.3280007 383.232,14.184 C383.445334,14.0399993 383.610666,13.872001 383.728,13.68 C383.845334,13.487999 383.904,13.2906677 383.904,13.088 C383.904,12.7253315 383.770668,12.4746674 383.504,12.336 C383.237332,12.1973326 382.848003,12.128 382.336,12.128 L380.992,12.128 C380.842666,12.128 380.680001,12.1200001 380.504,12.104 C380.327999,12.0879999 380.154668,12.0533336 379.984,12 C379.706665,12.2026677 379.504001,12.4159989 379.376,12.64 C379.247999,12.8640011 379.184,13.0879989 379.184,13.312 Z M378.032,13.488 C378.032,13.1573317 378.133332,12.8426682 378.336,12.544 C378.538668,12.2453318 378.815998,11.9733346 379.168,11.728 L379.168,11.664 C378.975999,11.5466661 378.813334,11.384001 378.68,11.176 C378.546666,10.967999 378.48,10.7093349 378.48,10.4 C378.48,10.0693317 378.570666,9.78133456 378.752,9.536 C378.933334,9.29066544 379.125332,9.09866736 379.328,8.96 L379.328,8.896 C379.071999,8.6826656 378.840001,8.39733512 378.632,8.04 C378.423999,7.68266488 378.32,7.26933568 378.32,6.8 C378.32,6.3733312 378.397333,5.98933504 378.552,5.648 C378.706667,5.30666496 378.917332,5.0160012 379.184,4.776 C379.450668,4.5359988 379.762665,4.35200064 380.12,4.224 C380.477335,4.09599936 380.853331,4.032 381.248,4.032 C381.461334,4.032 381.661332,4.05066648 381.848,4.088 C382.034668,4.12533352 382.202666,4.1706664 382.352,4.224 L385.056,4.224 L385.056,5.232 L383.456,5.232 C383.637334,5.41333424 383.789333,5.64266528 383.912,5.92 C384.034667,6.19733472 384.096,6.50133168 384.096,6.832 C384.096,7.24800208 384.021334,7.62399832 383.872,7.96 C383.722666,8.29600168 383.520001,8.57866552 383.264,8.808 C383.007999,9.03733448 382.706668,9.21599936 382.36,9.344 C382.013332,9.47200064 381.642669,9.536 381.248,9.536 C381.055999,9.536 380.858668,9.51200024 380.656,9.464 C380.453332,9.41599976 380.261334,9.34933376 380.08,9.264 C379.941333,9.38133392 379.824,9.51199928 379.728,9.656 C379.632,9.80000072 379.584,9.9786656 379.584,10.192 C379.584,10.4373346 379.679999,10.6399992 379.872,10.8 C380.064001,10.9600008 380.426664,11.04 380.96,11.04 L382.464,11.04 C383.370671,11.04 384.050664,11.1866652 384.504,11.48 C384.957336,11.7733348 385.184,12.2453301 385.184,12.896 C385.184,13.2586685 385.093334,13.602665 384.912,13.928 C384.730666,14.253335 384.469335,14.5386654 384.128,14.784 C383.786665,15.0293346 383.373336,15.2239993 382.888,15.368 C382.402664,15.5120007 381.856003,15.584 381.248,15.584 C380.767998,15.584 380.330669,15.5386671 379.936,15.448 C379.541331,15.3573329 379.202668,15.2213342 378.92,15.04 C378.637332,14.8586658 378.418667,14.6400013 378.264,14.384 C378.109333,14.1279987 378.032,13.829335 378.032,13.488 Z M381.248,8.656 C381.472001,8.656 381.682666,8.61333376 381.88,8.528 C382.077334,8.44266624 382.253333,8.3200008 382.408,8.16 C382.562667,7.9999992 382.682666,7.80533448 382.768,7.576 C382.853334,7.34666552 382.896,7.08800144 382.896,6.8 C382.896,6.22399712 382.736002,5.77866824 382.416,5.464 C382.095998,5.14933176 381.706669,4.992 381.248,4.992 C380.789331,4.992 380.400002,5.14933176 380.08,5.464 C379.759998,5.77866824 379.6,6.22399712 379.6,6.8 C379.6,7.08800144 379.642666,7.34666552 379.728,7.576 C379.813334,7.80533448 379.933333,7.9999992 380.088,8.16 C380.242667,8.3200008 380.418666,8.44266624 380.616,8.528 C380.813334,8.61333376 381.023999,8.656 381.248,8.656 Z M385.888,8.128 C385.888,7.4879968 385.986666,6.9146692 386.184,6.408 C386.381334,5.9013308 386.642665,5.47200176 386.968,5.12 C387.293335,4.76799824 387.663998,4.4986676 388.08,4.312 C388.496002,4.1253324 388.927998,4.032 389.376,4.032 C389.866669,4.032 390.306665,4.11733248 390.696,4.288 C391.085335,4.45866752 391.410665,4.7039984 391.672,5.024 C391.933335,5.3440016 392.133333,5.72799776 392.272,6.176 C392.410667,6.62400224 392.48,7.12533056 392.48,7.68 C392.48,7.96800144 392.464,8.20799904 392.432,8.4 L387.184,8.4 C387.237334,9.24267088 387.495998,9.90933088 387.96,10.4 C388.424002,10.8906691 389.02933,11.136 389.776,11.136 C390.149335,11.136 390.493332,11.0800006 390.808,10.968 C391.122668,10.8559994 391.423999,10.7093342 391.712,10.528 L392.176,11.392 C391.834665,11.6053344 391.456002,11.7919992 391.04,11.952 C390.623998,12.1120008 390.149336,12.192 389.616,12.192 C389.093331,12.192 388.605336,12.0986676 388.152,11.912 C387.698664,11.7253324 387.304002,11.4586684 386.968,11.112 C386.631998,10.7653316 386.368001,10.3413358 386.176,9.84 C385.983999,9.33866416 385.888,8.7680032 385.888,8.128 Z M391.328,7.536 C391.328,6.735996 391.160002,6.12533544 390.824,5.704 C390.487998,5.28266456 390.016003,5.072 389.408,5.072 C389.130665,5.072 388.866668,5.12799944 388.616,5.24 C388.365332,5.35200056 388.138668,5.51199896 387.936,5.72 C387.733332,5.92800104 387.565334,6.18399848 387.432,6.488 C387.298666,6.79200152 387.210667,7.14133136 387.168,7.536 L391.328,7.536 Z" id="Edge" fill="#FFFFFF"></path>
            <path d="M331.12,45.096 L333.328,45.096 L333.328,39.224 L331.424,39.224 L331.424,37.768 C331.978669,37.6613328 332.447998,37.5333341 332.832,37.384 C333.216002,37.2346659 333.589332,37.0533344 333.952,36.84 L335.68,36.84 L335.68,45.096 L337.584,45.096 L337.584,47 L331.12,47 L331.12,45.096 Z M343.152,42.776 L343.152,41.128 C343.152,40.7973317 343.162667,40.4160022 343.184,39.984 C343.205333,39.5519978 343.226667,39.1760016 343.248,38.856 L343.184,38.856 C343.055999,39.1333347 342.922667,39.4159986 342.784,39.704 C342.645333,39.9920014 342.501334,40.2799986 342.352,40.568 L341.008,42.776 L343.152,42.776 Z M346.512,44.568 L345.344,44.568 L345.344,47 L343.152,47 L343.152,44.568 L338.752,44.568 L338.752,42.952 L342.464,36.84 L345.344,36.84 L345.344,42.776 L346.512,42.776 L346.512,44.568 Z" id="14" fill="#555555"></path>
            <path d="M377.264,45.912 L379.6,45.912 L379.6,38.392 L377.744,38.392 L377.744,37.544 C378.213336,37.4586662 378.621332,37.3546673 378.968,37.232 C379.314668,37.1093327 379.626665,36.9626675 379.904,36.792 L380.912,36.792 L380.912,45.912 L383.024,45.912 L383.024,47 L377.264,47 L377.264,45.912 Z M387.936,47.192 C386.901328,47.192 386.096003,46.7333379 385.52,45.816 C384.943997,44.8986621 384.656,43.5813419 384.656,41.864 C384.656,40.1466581 384.943997,38.8400045 385.52,37.944 C386.096003,37.0479955 386.901328,36.6 387.936,36.6 C388.960005,36.6 389.759997,37.0479955 390.336,37.944 C390.912003,38.8400045 391.2,40.1466581 391.2,41.864 C391.2,43.5813419 390.912003,44.8986621 390.336,45.816 C389.759997,46.7333379 388.960005,47.192 387.936,47.192 Z M387.936,46.136 C388.234668,46.136 388.503999,46.0533342 388.744,45.888 C388.984001,45.7226658 389.191999,45.4666684 389.368,45.12 C389.544001,44.7733316 389.68,44.3306694 389.776,43.792 C389.872,43.2533306 389.92,42.6106704 389.92,41.864 C389.92,41.1173296 389.872,40.477336 389.776,39.944 C389.68,39.410664 389.544001,38.9760017 389.368,38.64 C389.191999,38.3039983 388.984001,38.0560008 388.744,37.896 C388.503999,37.7359992 388.234668,37.656 387.936,37.656 C387.637332,37.656 387.365335,37.7359992 387.12,37.896 C386.874665,38.0560008 386.664001,38.3039983 386.488,38.64 C386.311999,38.9760017 386.176,39.410664 386.08,39.944 C385.984,40.477336 385.936,41.1173296 385.936,41.864 C385.936,43.3573408 386.119998,44.4426633 386.488,45.12 C386.856002,45.7973367 387.338664,46.136 387.936,46.136 Z" id="10" fill="#555555"></path>
            <path d="M471.472,9.712 C471.845335,10.1066686 472.285331,10.4239988 472.792,10.664 C473.298669,10.9040012 473.823997,11.024 474.368,11.024 C475.061337,11.024 475.599998,10.8666682 475.984,10.552 C476.368002,10.2373318 476.56,9.82400256 476.56,9.312 C476.56,9.045332 476.514667,8.8186676 476.424,8.632 C476.333333,8.4453324 476.210667,8.285334 476.056,8.152 C475.901333,8.018666 475.717334,7.8986672 475.504,7.792 C475.290666,7.6853328 475.061335,7.57333392 474.816,7.456 L473.312,6.8 C473.066665,6.6933328 472.816001,6.56533408 472.56,6.416 C472.303999,6.26666592 472.074668,6.0853344 471.872,5.872 C471.669332,5.6586656 471.504001,5.4053348 471.376,5.112 C471.247999,4.8186652 471.184,4.48000192 471.184,4.096 C471.184,3.70133136 471.266666,3.33333504 471.432,2.992 C471.597334,2.65066496 471.826665,2.35466792 472.12,2.104 C472.413335,1.85333208 472.759998,1.65866736 473.16,1.52 C473.560002,1.38133264 473.999998,1.312 474.48,1.312 C475.109336,1.312 475.690664,1.4319988 476.224,1.672 C476.757336,1.9120012 477.210665,2.22399808 477.584,2.608 L476.864,3.472 C476.543998,3.16266512 476.189335,2.92000088 475.8,2.744 C475.410665,2.56799912 474.970669,2.48 474.48,2.48 C473.89333,2.48 473.421335,2.61599864 473.064,2.888 C472.706665,3.16000136 472.528,3.5359976 472.528,4.016 C472.528,4.27200128 472.578666,4.48799912 472.68,4.664 C472.781334,4.84000088 472.917332,4.994666 473.088,5.128 C473.258668,5.261334 473.445332,5.37866616 473.648,5.48 C473.850668,5.58133384 474.058666,5.67466624 474.272,5.76 L475.76,6.4 C476.058668,6.52800064 476.341332,6.67466584 476.608,6.84 C476.874668,7.00533416 477.103999,7.19733224 477.296,7.416 C477.488001,7.63466776 477.639999,7.8906652 477.752,8.184 C477.864001,8.4773348 477.92,8.81599808 477.92,9.2 C477.92,9.61600208 477.837334,10.0053315 477.672,10.368 C477.506666,10.7306685 477.269335,11.0479986 476.96,11.32 C476.650665,11.5920014 476.277336,11.8053326 475.84,11.96 C475.402664,12.1146674 474.906669,12.192 474.352,12.192 C473.615996,12.192 472.933336,12.0533347 472.304,11.776 C471.674664,11.4986653 471.130669,11.1200024 470.672,10.64 L471.472,9.712 Z M479.472,9.984 C479.472,9.1306624 479.85333,8.4773356 480.616,8.024 C481.37867,7.5706644 482.591992,7.25333424 484.256,7.072 C484.256,6.82666544 484.232,6.58666784 484.184,6.352 C484.136,6.11733216 484.050667,5.90933424 483.928,5.728 C483.805333,5.54666576 483.642668,5.40000056 483.44,5.288 C483.237332,5.17599944 482.976002,5.12 482.656,5.12 C482.197331,5.12 481.773335,5.20533248 481.384,5.376 C480.994665,5.54666752 480.645335,5.7386656 480.336,5.952 L479.808,5.04 C480.170668,4.80533216 480.613331,4.57866776 481.136,4.36 C481.658669,4.14133224 482.234664,4.032 482.864,4.032 C483.813338,4.032 484.501331,4.32266376 484.928,4.904 C485.354669,5.48533624 485.568,6.26132848 485.568,7.232 L485.568,12 L484.48,12 L484.368,11.072 L484.336,11.072 C483.962665,11.3813349 483.560002,11.6453322 483.128,11.864 C482.695998,12.0826678 482.240002,12.192 481.76,12.192 C481.098663,12.192 480.552002,12.0000019 480.12,11.616 C479.687998,11.2319981 479.472,10.6880035 479.472,9.984 Z M480.768,9.888 C480.768,10.3360022 480.898665,10.655999 481.16,10.848 C481.421335,11.040001 481.743998,11.136 482.128,11.136 C482.501335,11.136 482.855998,11.0480009 483.192,10.872 C483.528002,10.6959991 483.882665,10.437335 484.256,10.096 L484.256,7.936 C483.60533,8.02133376 483.056002,8.12266608 482.608,8.24 C482.159998,8.35733392 481.800001,8.4959992 481.528,8.656 C481.255999,8.8160008 481.061334,8.99999896 480.944,9.208 C480.826666,9.41600104 480.768,9.64266544 480.768,9.888 Z M491.552,1.68 C491.263999,1.55199936 490.970668,1.488 490.672,1.488 C489.946663,1.488 489.584,1.98932832 489.584,2.992 L489.584,4.224 L491.232,4.224 L491.232,5.296 L489.584,5.296 L489.584,12 L488.272,12 L488.272,5.296 L487.216,5.296 L487.216,4.304 L488.272,4.224 L488.272,2.992 C488.272,2.191996 488.455998,1.56266896 488.824,1.104 C489.192002,0.64533104 489.765329,0.416 490.544,0.416 C490.789335,0.416 491.021332,0.43999976 491.24,0.488 C491.458668,0.53600024 491.658666,0.59733296 491.84,0.672 L491.552,1.68 Z M492.016,9.984 C492.016,9.1306624 492.39733,8.4773356 493.16,8.024 C493.92267,7.5706644 495.135992,7.25333424 496.8,7.072 C496.8,6.82666544 496.776,6.58666784 496.728,6.352 C496.68,6.11733216 496.594667,5.90933424 496.472,5.728 C496.349333,5.54666576 496.186668,5.40000056 495.984,5.288 C495.781332,5.17599944 495.520002,5.12 495.2,5.12 C494.741331,5.12 494.317335,5.20533248 493.928,5.376 C493.538665,5.54666752 493.189335,5.7386656 492.88,5.952 L492.352,5.04 C492.714668,4.80533216 493.157331,4.57866776 493.68,4.36 C494.202669,4.14133224 494.778664,4.032 495.408,4.032 C496.357338,4.032 497.045331,4.32266376 497.472,4.904 C497.898669,5.48533624 498.112,6.26132848 498.112,7.232 L498.112,12 L497.024,12 L496.912,11.072 L496.88,11.072 C496.506665,11.3813349 496.104002,11.6453322 495.672,11.864 C495.239998,12.0826678 494.784002,12.192 494.304,12.192 C493.642663,12.192 493.096002,12.0000019 492.664,11.616 C492.231998,11.2319981 492.016,10.6880035 492.016,9.984 Z M493.312,9.888 C493.312,10.3360022 493.442665,10.655999 493.704,10.848 C493.965335,11.040001 494.287998,11.136 494.672,11.136 C495.045335,11.136 495.399998,11.0480009 495.736,10.872 C496.072002,10.6959991 496.426665,10.437335 496.8,10.096 L496.8,7.936 C496.14933,8.02133376 495.600002,8.12266608 495.152,8.24 C494.703998,8.35733392 494.344001,8.4959992 494.072,8.656 C493.799999,8.8160008 493.605334,8.99999896 493.488,9.208 C493.370666,9.41600104 493.312,9.64266544 493.312,9.888 Z M500.592,4.224 L501.68,4.224 L501.792,5.632 L501.84,5.632 C502.106668,5.14133088 502.429331,4.75200144 502.808,4.464 C503.186669,4.17599856 503.599998,4.032 504.048,4.032 C504.357335,4.032 504.634665,4.0853328 504.88,4.192 L504.624,5.344 C504.495999,5.30133312 504.378667,5.26933344 504.272,5.248 C504.165333,5.22666656 504.032001,5.216 503.872,5.216 C503.541332,5.216 503.197335,5.349332 502.84,5.616 C502.482665,5.882668 502.170668,6.34666336 501.904,7.008 L501.904,12 L500.592,12 L500.592,4.224 Z M506.816,2.624 C506.559999,2.624 506.344001,2.5440008 506.168,2.384 C505.991999,2.2239992 505.904,2.02133456 505.904,1.776 C505.904,1.51999872 505.991999,1.31466744 506.168,1.16 C506.344001,1.00533256 506.559999,0.928 506.816,0.928 C507.072001,0.928 507.287999,1.00533256 507.464,1.16 C507.640001,1.31466744 507.728,1.51999872 507.728,1.776 C507.728,2.02133456 507.640001,2.2239992 507.464,2.384 C507.287999,2.5440008 507.072001,2.624 506.816,2.624 Z M506.144,4.224 L507.456,4.224 L507.456,12 L506.144,12 L506.144,4.224 Z" id="Safari" fill="#FFFFFF"></path>
            <path d="M441.12,45.096 L443.328,45.096 L443.328,39.224 L441.424,39.224 L441.424,37.768 C441.978669,37.6613328 442.447998,37.5333341 442.832,37.384 C443.216002,37.2346659 443.589332,37.0533344 443.952,36.84 L445.68,36.84 L445.68,45.096 L447.584,45.096 L447.584,47 L441.12,47 L441.12,45.096 Z M452.672,47.192 C452.127997,47.192 451.632002,47.0773345 451.184,46.848 C450.735998,46.6186655 450.354668,46.2800022 450.04,45.832 C449.725332,45.3839978 449.480001,44.8293366 449.304,44.168 C449.127999,43.5066634 449.04,42.7440043 449.04,41.88 C449.04,41.0159957 449.127999,40.2586699 449.304,39.608 C449.480001,38.9573301 449.725332,38.4106689 450.04,37.968 C450.354668,37.5253311 450.735998,37.1946678 451.184,36.976 C451.632002,36.7573322 452.127997,36.648 452.672,36.648 C453.216003,36.648 453.711998,36.7573322 454.16,36.976 C454.608002,37.1946678 454.989332,37.5253311 455.304,37.968 C455.618668,38.4106689 455.863999,38.9573301 456.04,39.608 C456.216001,40.2586699 456.304,41.0159957 456.304,41.88 C456.304,42.7440043 456.216001,43.5066634 456.04,44.168 C455.863999,44.8293366 455.618668,45.3839978 455.304,45.832 C454.989332,46.2800022 454.608002,46.6186655 454.16,46.848 C453.711998,47.0773345 453.216003,47.192 452.672,47.192 Z M452.672,45.368 C452.874668,45.368 453.061332,45.3173338 453.232,45.216 C453.402668,45.1146662 453.551999,44.930668 453.68,44.664 C453.808001,44.397332 453.906666,44.0400022 453.976,43.592 C454.045334,43.1439978 454.08,42.5733368 454.08,41.88 C454.08,41.1866632 454.045334,40.6186689 453.976,40.176 C453.906666,39.7333311 453.808001,39.3866679 453.68,39.136 C453.551999,38.8853321 453.402668,38.7120005 453.232,38.616 C453.061332,38.5199995 452.874668,38.472 452.672,38.472 C452.479999,38.472 452.298668,38.5199995 452.128,38.616 C451.957332,38.7120005 451.808001,38.8853321 451.68,39.136 C451.551999,39.3866679 451.450667,39.7333311 451.376,40.176 C451.301333,40.6186689 451.264,41.1866632 451.264,41.88 C451.264,42.5733368 451.301333,43.1439978 451.376,43.592 C451.450667,44.0400022 451.551999,44.397332 451.68,44.664 C451.808001,44.930668 451.957332,45.1146662 452.128,45.216 C452.298668,45.3173338 452.479999,45.368 452.672,45.368 Z" id="10" fill="#555555"></path>
            <path d="M487.264,45.912 L489.6,45.912 L489.6,38.392 L487.744,38.392 L487.744,37.544 C488.213336,37.4586662 488.621332,37.3546673 488.968,37.232 C489.314668,37.1093327 489.626665,36.9626675 489.904,36.792 L490.912,36.792 L490.912,45.912 L493.024,45.912 L493.024,47 L487.264,47 L487.264,45.912 Z M497.936,47.192 C496.901328,47.192 496.096003,46.7333379 495.52,45.816 C494.943997,44.8986621 494.656,43.5813419 494.656,41.864 C494.656,40.1466581 494.943997,38.8400045 495.52,37.944 C496.096003,37.0479955 496.901328,36.6 497.936,36.6 C498.960005,36.6 499.759997,37.0479955 500.336,37.944 C500.912003,38.8400045 501.2,40.1466581 501.2,41.864 C501.2,43.5813419 500.912003,44.8986621 500.336,45.816 C499.759997,46.7333379 498.960005,47.192 497.936,47.192 Z M497.936,46.136 C498.234668,46.136 498.503999,46.0533342 498.744,45.888 C498.984001,45.7226658 499.191999,45.4666684 499.368,45.12 C499.544001,44.7733316 499.68,44.3306694 499.776,43.792 C499.872,43.2533306 499.92,42.6106704 499.92,41.864 C499.92,41.1173296 499.872,40.477336 499.776,39.944 C499.68,39.410664 499.544001,38.9760017 499.368,38.64 C499.191999,38.3039983 498.984001,38.0560008 498.744,37.896 C498.503999,37.7359992 498.234668,37.656 497.936,37.656 C497.637332,37.656 497.365335,37.7359992 497.12,37.896 C496.874665,38.0560008 496.664001,38.3039983 496.488,38.64 C496.311999,38.9760017 496.176,39.410664 496.08,39.944 C495.984,40.477336 495.936,41.1173296 495.936,41.864 C495.936,43.3573408 496.119998,44.4426633 496.488,45.12 C496.856002,45.7973367 497.338664,46.136 497.936,46.136 Z M502.944,46.2 C502.944,45.8906651 503.037332,45.6426676 503.224,45.456 C503.410668,45.2693324 503.637332,45.176 503.904,45.176 C504.160001,45.176 504.381332,45.2693324 504.568,45.456 C504.754668,45.6426676 504.848,45.8906651 504.848,46.2 C504.848,46.4880014 504.754668,46.7253324 504.568,46.912 C504.381332,47.0986676 504.160001,47.192 503.904,47.192 C503.637332,47.192 503.410668,47.0986676 503.224,46.912 C503.037332,46.7253324 502.944,46.4880014 502.944,46.2 Z M507.152,45.912 L509.488,45.912 L509.488,38.392 L507.632,38.392 L507.632,37.544 C508.101336,37.4586662 508.509332,37.3546673 508.856,37.232 C509.202668,37.1093327 509.514665,36.9626675 509.792,36.792 L510.8,36.792 L510.8,45.912 L512.912,45.912 L512.912,47 L507.152,47 L507.152,45.912 Z M515.104,45.912 L517.44,45.912 L517.44,38.392 L515.584,38.392 L515.584,37.544 C516.053336,37.4586662 516.461332,37.3546673 516.808,37.232 C517.154668,37.1093327 517.466665,36.9626675 517.744,36.792 L518.752,36.792 L518.752,45.912 L520.864,45.912 L520.864,47 L515.104,47 L515.104,45.912 Z" id="10.11" fill="#555555"></path>
            <path d="M160.264,45.912 L162.6,45.912 L162.6,38.392 L160.744,38.392 L160.744,37.544 C161.213336,37.4586662 161.621332,37.3546673 161.968,37.232 C162.314668,37.1093327 162.626665,36.9626675 162.904,36.792 L163.912,36.792 L163.912,45.912 L166.024,45.912 L166.024,47 L160.264,47 L160.264,45.912 Z M170.936,47.192 C169.901328,47.192 169.096003,46.7333379 168.52,45.816 C167.943997,44.8986621 167.656,43.5813419 167.656,41.864 C167.656,40.1466581 167.943997,38.8400045 168.52,37.944 C169.096003,37.0479955 169.901328,36.6 170.936,36.6 C171.960005,36.6 172.759997,37.0479955 173.336,37.944 C173.912003,38.8400045 174.2,40.1466581 174.2,41.864 C174.2,43.5813419 173.912003,44.8986621 173.336,45.816 C172.759997,46.7333379 171.960005,47.192 170.936,47.192 Z M170.936,46.136 C171.234668,46.136 171.503999,46.0533342 171.744,45.888 C171.984001,45.7226658 172.191999,45.4666684 172.368,45.12 C172.544001,44.7733316 172.68,44.3306694 172.776,43.792 C172.872,43.2533306 172.92,42.6106704 172.92,41.864 C172.92,41.1173296 172.872,40.477336 172.776,39.944 C172.68,39.410664 172.544001,38.9760017 172.368,38.64 C172.191999,38.3039983 171.984001,38.0560008 171.744,37.896 C171.503999,37.7359992 171.234668,37.656 170.936,37.656 C170.637332,37.656 170.365335,37.7359992 170.12,37.896 C169.874665,38.0560008 169.664001,38.3039983 169.488,38.64 C169.311999,38.9760017 169.176,39.410664 169.08,39.944 C168.984,40.477336 168.936,41.1173296 168.936,41.864 C168.936,43.3573408 169.119998,44.4426633 169.488,45.12 C169.856002,45.7973367 170.338664,46.136 170.936,46.136 Z M175.944,46.2 C175.944,45.8906651 176.037332,45.6426676 176.224,45.456 C176.410668,45.2693324 176.637332,45.176 176.904,45.176 C177.160001,45.176 177.381332,45.2693324 177.568,45.456 C177.754668,45.6426676 177.848,45.8906651 177.848,46.2 C177.848,46.4880014 177.754668,46.7253324 177.568,46.912 C177.381332,47.0986676 177.160001,47.192 176.904,47.192 C176.637332,47.192 176.410668,47.0986676 176.224,46.912 C176.037332,46.7253324 175.944,46.4880014 175.944,46.2 Z M180.152,45.912 L182.488,45.912 L182.488,38.392 L180.632,38.392 L180.632,37.544 C181.101336,37.4586662 181.509332,37.3546673 181.856,37.232 C182.202668,37.1093327 182.514665,36.9626675 182.792,36.792 L183.8,36.792 L183.8,45.912 L185.912,45.912 L185.912,47 L180.152,47 L180.152,45.912 Z M188.104,45.912 L190.44,45.912 L190.44,38.392 L188.584,38.392 L188.584,37.544 C189.053336,37.4586662 189.461332,37.3546673 189.808,37.232 C190.154668,37.1093327 190.466665,36.9626675 190.744,36.792 L191.752,36.792 L191.752,45.912 L193.864,45.912 L193.864,47 L188.104,47 L188.104,45.912 Z" id="10.11" fill="#555555"></path>
        </g>
    </g>
</svg>