<svg width="2390" height="397" viewBox="0 0 2390 397" xmlns="http://www.w3.org/2000/svg" xmlns:xlink="http://www.w3.org/1999/xlink"><title>Group 2</title><defs><linearGradient x1="50%" y1="0%" x2="51.269%" y2="115.32%" id="b"><stop stop-color="#00AAD3" offset="0%"/><stop stop-color="#9A00BA" offset="100%"/></linearGradient><linearGradient x1="50%" y1="0%" x2="50%" y2="100%" id="c"><stop stop-color="#00AAD3" offset="0%"/><stop stop-color="#9A00BA" offset="100%"/></linearGradient><path id="a" d="M0 .032l64.38 58.554h90.516l71.733-33.79-25.522 52.378v86.04l-46.212 52.806H64.38l-45.64-52.807v-86.04z"/><mask id="d" x="0" y="0" width="226.629" height="215.989" fill="#fff"><use xlink:href="#a"/></mask><linearGradient x1="50%" y1="0%" y2="321.79%" id="e"><stop stop-color="#00AAD3" offset="0%"/><stop stop-color="#9A00BA" offset="100%"/></linearGradient><linearGradient x1="50%" y1="0%" y2="369.57%" id="f"><stop stop-color="#00AAD3" offset="0%"/><stop stop-color="#9A00BA" offset="100%"/></linearGradient><linearGradient x1="-65.223%" y1="-783.47%" x2="50%" y2="100%" id="g"><stop stop-color="#00AAD3" offset="0%"/><stop stop-color="#9A00BA" offset="100%"/></linearGradient><linearGradient x1="-40.692%" y1="-571.561%" x2="50%" y2="100%" id="h"><stop stop-color="#00AAD3" offset="0%"/><stop stop-color="#9A00BA" offset="100%"/></linearGradient><linearGradient x1="-160.185%" y1="-547.408%" x2="50%" y2="100%" id="i"><stop stop-color="#00AAD3" offset="0%"/><stop stop-color="#9A00BA" offset="100%"/></linearGradient></defs><g fill="none" fill-rule="evenodd"><path fill="#FAFAFA" d="M0 0h2390v397H0z"/><path d="M763.52 179.432c-9.12 0-15.432 2.304-18.936 6.912-3.504 4.608-5.256 13.032-5.256 25.272 0 12.24 1.584 20.832 4.752 25.776 3.168 4.944 9.648 7.416 19.44 7.416l17.28-1.296.288 4.608c-8.064.864-13.92 1.296-17.568 1.296-11.712 0-19.56-2.76-23.544-8.28-3.984-5.52-5.976-15.312-5.976-29.376 0-14.064 2.208-23.736 6.624-29.016 4.416-5.28 12.048-7.92 22.896-7.92l17.28 1.44-.288 4.608c-7.68-.96-13.344-1.44-16.992-1.44zm60.624 0c-9.12 0-15.432 2.304-18.936 6.912-3.504 4.608-5.256 13.032-5.256 25.272 0 12.24 1.584 20.832 4.752 25.776 3.168 4.944 9.648 7.416 19.44 7.416l17.28-1.296.288 4.608c-8.064.864-13.92 1.296-17.568 1.296-11.712 0-19.56-2.76-23.544-8.28-3.984-5.52-5.976-15.312-5.976-29.376 0-14.064 2.208-23.736 6.624-29.016 4.416-5.28 12.048-7.92 22.896-7.92l17.28 1.44-.288 4.608c-7.68-.96-13.344-1.44-16.992-1.44zm26.496 30.672v-4.896h44.208v4.896H850.64zm66.384 38.016v-72h5.04v72h-5.04zm0-92.88v-7.92h5.04v7.92h-5.04zm32.832 92.88h-5.04v-72h5.04v5.76c.864-.48 2.016-1.128 3.456-1.944 1.44-.816 4.248-1.872 8.424-3.168 4.176-1.296 8.472-1.944 12.888-1.944 8.832 0 14.88 2.592 18.144 7.776 3.456-2.016 7.68-3.816 12.672-5.4 4.992-1.584 9.6-2.376 13.824-2.376 9.6 0 15.936 2.424 19.008 7.272 3.072 4.848 4.608 14.376 4.608 28.584v37.44h-5.04v-37.152c0-12.672-1.152-21.096-3.456-25.272-2.304-4.176-7.344-6.264-15.12-6.264-4.128 0-8.256.6-12.384 1.8-4.128 1.2-7.2 2.376-9.216 3.528l-3.168 1.728c1.728 4.704 2.592 12.768 2.592 24.192v37.44h-5.04v-37.152c0-12.672-1.152-21.096-3.456-25.272-2.304-4.176-7.344-6.264-15.12-6.264-3.84 0-7.728.6-11.664 1.8-3.936 1.2-6.912 2.376-8.928 3.528l-3.024 1.872v61.488zm162.864-50.832v41.472c.384 3.456 3.984 5.472 10.8 6.048l-.288 4.464c-7.008 0-11.952-2.016-14.832-6.048-9.792 4.128-19.488 6.192-29.088 6.192-5.952 0-10.584-1.776-13.896-5.328-3.312-3.552-4.968-8.616-4.968-15.192 0-6.576 1.584-11.592 4.752-15.048 3.168-3.456 8.208-5.52 15.12-6.192l27.36-2.88v-7.488c0-6.144-1.32-10.608-3.96-13.392-2.64-2.784-6.648-4.176-12.024-4.176-5.472 0-13.056.624-22.752 1.872l-4.464.576-.432-4.752c10.752-1.728 19.968-2.592 27.648-2.592 14.016 0 21.024 7.488 21.024 22.464zm-43.488 19.584c-2.304 2.592-3.456 6.48-3.456 11.664 0 5.184 1.176 9.192 3.528 12.024 2.352 2.832 5.64 4.248 9.864 4.248 4.224 0 8.688-.504 13.392-1.512 4.704-1.008 8.4-1.992 11.088-2.952l4.032-1.44v-29.52l-26.784 2.736c-5.472.576-9.36 2.16-11.664 4.752zm115.848 60.408c-4.848 3.504-12.864 5.256-24.048 5.256-11.184 0-18.624-1.608-22.32-4.824-3.696-3.216-5.544-9.24-5.544-18.072 0-5.472 1.824-9.84 5.472-13.104 1.344-1.248 3.6-3.024 6.768-5.328-2.112-1.344-3.168-4.464-3.168-9.36 0-1.344 1.104-4.32 3.312-8.928l1.008-2.304c-8.256-2.688-12.384-9.984-12.384-21.888 0-16.032 8.208-24.048 24.624-24.048 4.992 0 9.408.48 13.248 1.44l2.016.432 20.16-.432v5.04h-15.552c3.84 3.552 5.76 9.528 5.76 17.928s-2.088 14.376-6.264 17.928c-4.176 3.552-10.824 5.328-19.944 5.328-2.88 0-5.472-.192-7.776-.576-2.208 5.472-3.312 8.928-3.312 10.368 0 1.44.096 2.544.288 3.312.192.768.576 1.488 1.152 2.16.576.672 1.68 1.104 3.312 1.296 2.976.48 8.592.72 16.848.72 8.256 0 14.256 1.32 18 3.96 3.744 2.64 5.616 8.04 5.616 16.2s-2.424 13.992-7.272 17.496zm-46.728-17.784c0 7.104 1.512 11.952 4.536 14.544 3.024 2.592 9.168 3.888 18.432 3.888s15.864-1.368 19.8-4.104c3.936-2.736 5.904-7.392 5.904-13.968s-1.44-10.824-4.32-12.744c-2.88-1.92-8.256-2.88-16.128-2.88l-17.424-.432c-4.32 2.976-7.2 5.496-8.64 7.56-1.44 2.064-2.16 4.776-2.16 8.136zm5.472-45.936c2.976 2.784 8.088 4.176 15.336 4.176 7.248 0 12.384-1.368 15.408-4.104 3.024-2.736 4.536-7.704 4.536-14.904s-1.512-12.24-4.536-15.12c-3.024-2.88-8.16-4.32-15.408-4.32-7.248 0-12.36 1.464-15.336 4.392-2.976 2.928-4.464 7.944-4.464 15.048s1.488 12.048 4.464 14.832zm110.592 30.24l4.32-.288.288 4.608c-10.752.864-19.632 1.296-26.64 1.296-10.176-.096-17.232-3.192-21.168-9.288s-5.904-15.432-5.904-28.008c0-24.864 9.696-37.296 29.088-37.296 9.12 0 15.96 2.736 20.52 8.208 4.56 5.472 6.84 14.256 6.84 26.352v4.752h-51.12c0 10.368 1.632 18.072 4.896 23.112 3.264 5.04 8.688 7.56 16.272 7.56 7.584 0 15.12-.336 22.608-1.008zm-43.776-34.272h45.792c0-10.848-1.752-18.576-5.256-23.184-3.504-4.608-9.096-6.912-16.776-6.912-15.84 0-23.76 10.032-23.76 30.096zm69.552.576v-4.896h44.208v4.896h-44.208zm67.248 38.016V143h5.04v105.12h-5.04zm28.656 0v-72h5.04v72h-5.04zm0-92.88v-7.92h5.04v7.92h-5.04zm76.68 122.04c-4.848 3.504-12.864 5.256-24.048 5.256-11.184 0-18.624-1.608-22.32-4.824-3.696-3.216-5.544-9.24-5.544-18.072 0-5.472 1.824-9.84 5.472-13.104 1.344-1.248 3.6-3.024 6.768-5.328-2.112-1.344-3.168-4.464-3.168-9.36 0-1.344 1.104-4.32 3.312-8.928l1.008-2.304c-8.256-2.688-12.384-9.984-12.384-21.888 0-16.032 8.208-24.048 24.624-24.048 4.992 0 9.408.48 13.248 1.44l2.016.432 20.16-.432v5.04h-15.552c3.84 3.552 5.76 9.528 5.76 17.928s-2.088 14.376-6.264 17.928c-4.176 3.552-10.824 5.328-19.944 5.328-2.88 0-5.472-.192-7.776-.576-2.208 5.472-3.312 8.928-3.312 10.368 0 1.44.096 2.544.288 3.312.192.768.576 1.488 1.152 2.16.576.672 1.68 1.104 3.312 1.296 2.976.48 8.592.72 16.848.72 8.256 0 14.256 1.32 18 3.96 3.744 2.64 5.616 8.04 5.616 16.2s-2.424 13.992-7.272 17.496zm-46.728-17.784c0 7.104 1.512 11.952 4.536 14.544 3.024 2.592 9.168 3.888 18.432 3.888s15.864-1.368 19.8-4.104c3.936-2.736 5.904-7.392 5.904-13.968s-1.44-10.824-4.32-12.744c-2.88-1.92-8.256-2.88-16.128-2.88l-17.424-.432c-4.32 2.976-7.2 5.496-8.64 7.56-1.44 2.064-2.16 4.776-2.16 8.136zm5.472-45.936c2.976 2.784 8.088 4.176 15.336 4.176 7.248 0 12.384-1.368 15.408-4.104 3.024-2.736 4.536-7.704 4.536-14.904s-1.512-12.24-4.536-15.12c-3.024-2.88-8.16-4.32-15.408-4.32-7.248 0-12.36 1.464-15.336 4.392-2.976 2.928-4.464 7.944-4.464 15.048s1.488 12.048 4.464 14.832zm69.552 34.56h-5.04V143h5.04v37.44c8.448-3.744 17.136-5.616 26.064-5.616s14.928 2.424 18 7.272c3.072 4.848 4.608 14.376 4.608 28.584v37.44h-5.04v-37.152c0-12.672-1.152-21.096-3.456-25.272-2.304-4.176-7.344-6.264-15.12-6.264-3.84 0-7.848.48-12.024 1.44-4.176.96-7.368 1.92-9.576 2.88l-3.456 1.44v62.928zm105.408-67.392h-26.208v37.728c0 11.04.792 18.216 2.376 21.528 1.584 3.312 5.208 4.968 10.872 4.968l14.112-1.152.432 4.608c-6.336.768-11.184 1.152-14.544 1.152-6.816 0-11.568-1.752-14.256-5.256-2.688-3.504-4.032-10.296-4.032-20.376v-43.2h-11.376v-4.608h11.376v-23.472h5.04v23.472h26.208v4.608zm18.72-.144c7.968-3.84 16.44-5.76 25.416-5.76 8.976 0 15.192 2.784 18.648 8.352 3.456 5.568 5.184 15.12 5.184 28.656s-2.256 23.184-6.768 28.944c-4.512 5.76-13.2 8.64-26.064 8.64-6.72 0-12.816-.336-18.288-1.008l-3.168-.288V143h5.04v37.584zm0 63.36c7.488.576 13.56.864 18.216.864 4.656 0 8.832-.624 12.528-1.872 3.696-1.248 6.504-3.408 8.424-6.48 1.92-3.072 3.192-6.504 3.816-10.296.624-3.792.936-8.856.936-15.192 0-11.328-1.296-19.416-3.888-24.264-2.592-4.848-7.68-7.272-15.264-7.272-3.84 0-7.824.48-11.952 1.44s-7.296 1.92-9.504 2.88l-3.312 1.44v58.752zm95.616-69.12c10.656 0 18.192 2.688 22.608 8.064 4.416 5.376 6.624 15.072 6.624 29.088 0 14.016-1.968 23.76-5.904 29.232-3.936 5.472-11.712 8.208-23.328 8.208s-19.392-2.736-23.328-8.208c-3.936-5.472-5.904-15.216-5.904-29.232s2.208-23.712 6.624-29.088c4.416-5.376 11.952-8.064 22.608-8.064zm0 69.984c5.376 0 9.624-.552 12.744-1.656 3.12-1.104 5.52-3.168 7.2-6.192 1.68-3.024 2.76-6.432 3.24-10.224.48-3.792.72-9.096.72-15.912 0-12.096-1.68-20.352-5.04-24.768-3.36-4.416-9.648-6.624-18.864-6.624-9.216 0-15.504 2.208-18.864 6.624-3.36 4.416-5.04 12.672-5.04 24.768 0 6.816.24 12.12.72 15.912.48 3.792 1.56 7.2 3.24 10.224 1.68 3.024 4.08 5.088 7.2 6.192s7.368 1.656 12.744 1.656zm39.888-68.688h5.904l21.456 32.112 21.6-32.112h5.904l-24.48 36 24.336 36h-5.904l-21.456-32.112-21.456 32.112h-5.904l24.336-36-24.336-36z" fill="url(#b)"/><g transform="translate(455 66)"><use stroke="url(#c)" mask="url(#d)" stroke-width="10" xlink:href="#a"/><path d="M55 107s10 10.652 20 10.652S95 107 95 107" stroke="url(#e)" stroke-width="5" stroke-linecap="square"/><path d="M125 107s10 10.652 20 10.652S165 107 165 107" stroke="url(#f)" stroke-width="5" stroke-linecap="square"/><path d="M79 157s7.545 8 15.09 8c7.546 0 15.092-8 15.092-8" stroke="url(#g)" stroke-width="5" stroke-linecap="square"/><path d="M109.818 157s7.546 8 15.09 8c7.547 0 15.092-8 15.092-8" stroke="url(#h)" stroke-width="5" stroke-linecap="square"/><ellipse fill="url(#i)" cx="110.5" cy="150.5" rx="12.5" ry="7.5"/></g><g fill-rule="nonzero" fill="#DDD"><path d="M2042.632 362.268c-1.312-1.313-.62-2.993-.01-3.603l16.27-16.272c.35-.347 2.008-1.942 2.008-4.108 0-2.115-1.7-3.772-2.007-4.08l-16.062-16.06c-1.37-1.37-2.62-2.045-4.13-2.045-1.728 0-3.134 1.12-4.057 2.044l-16.29 16.29c-.486.487-2.12 1.487-3.606 0-1.438-1.437-.434-3.172 0-3.605l16.29-16.292c.818-.818 3.533-3.538 7.705-3.538 4.225 0 7.096 2.94 7.695 3.538L2062.5 330.6c.41.41 3.5 3.247 3.5 7.66 0 4.323-2.84 7.08-3.5 7.74l-16.265 16.264c-.67.67-2.357 1.25-3.603.004z"/><path d="M2039.63 350.058c-6.835 0-12.152-5.432-12.152-12.133 0-6.7 5.45-12.197 12.15-12.197 4.235 0 6.734 2.1 6.82 2.17 1.08.902 1.225 2.51.32 3.59-2.383 2.385-3.636-.643-7.14-.643-3.887 0-7.05 3.192-7.05 7.08s3.163 7.016 7.05 7.016c3.713 0 4.61-2.985 7.045-.552.96.96.785 2.682-.286 3.596-.124.105-2.628 2.074-6.758 2.074zM2145.45 324.01h.327c5.013 0 9.005 2.437 11.98 7.308.98 2.19 1.468 4.27 1.468 6.24v.33c0 5.048-2.42 9.07-7.255 12.067-2.173.985-4.238 1.478-6.194 1.478h-.326c-5.013 0-9.006-2.436-11.98-7.307-.98-2.19-1.468-4.27-1.468-6.24v-.33c0-5.047 2.418-9.07 7.254-12.067 2.174-.986 4.238-1.48 6.195-1.48zm-10.188 13.794c0 3.325 1.495 6.144 4.483 8.457 1.834 1.26 3.818 1.89 5.95 1.89 3.3 0 6.1-1.506 8.396-4.516 1.25-1.848 1.875-3.846 1.875-5.994 0-3.325-1.495-6.144-4.483-8.457-1.834-1.258-3.818-1.888-5.95-1.888-3.3 0-6.1 1.506-8.395 4.516-1.25 1.848-1.875 3.846-1.875 5.994zM2166.427 324.586h6.6c5.04 0 8.763 1.34 11.168 4.023 2.608 2.667 3.912 5.733 3.912 9.195v.493c0 4.638-2.228 8.442-6.683 11.412-2.214 1.15-4.416 1.724-6.602 1.724h-8.396c-1.14-.206-1.712-.78-1.712-1.724v-23.4c.205-1.15.775-1.724 1.713-1.724zm1.71 3.448v19.95h8.07c1.535 0 3.356-.875 5.46-2.627 2.12-2.093 3.18-4.556 3.18-7.39 0-3.53-1.685-6.403-5.053-8.62-1.576-.875-2.99-1.313-4.24-1.313h-7.416zM2195.33 324.586h17.278c1.25.123 1.875.643 1.875 1.56v.328c0 .917-.625 1.437-1.875 1.56h-15.567v8.046h14.1c1.25.124 1.875.644 1.875 1.56v.33c0 .916-.625 1.436-1.874 1.56h-14.1v8.456h15.57c1.248.123 1.873.644 1.873 1.56v.33c0 .916-.625 1.436-1.874 1.56h-17.036c-1.305-.083-1.957-.74-1.957-1.972V326.31c.204-1.15.774-1.724 1.712-1.724zM2260.576 323.955h.33c.916 0 1.436.63 1.558 1.888v21.84h15.107c1.26.123 1.89.643 1.89 1.56v.328c0 .918-.63 1.438-1.89 1.56h-16.583c-1.313-.08-1.97-.738-1.97-1.968v-23.318c.123-1.26.643-1.89 1.56-1.89zM2295.334 323.71h.328c5.05 0 9.072 2.434 12.07 7.306.984 2.19 1.477 4.27 1.477 6.24v.328c0 5.05-2.437 9.073-7.308 12.07-2.19.984-4.27 1.476-6.24 1.476h-.328c-5.05 0-9.073-2.435-12.07-7.306-.984-2.19-1.476-4.27-1.476-6.24v-.33c0-5.048 2.435-9.07 7.306-12.067 2.19-.986 4.27-1.478 6.24-1.478zM2285.07 337.5c0 3.325 1.506 6.144 4.516 8.456 1.848 1.26 3.846 1.89 5.994 1.89 3.325 0 6.143-1.507 8.456-4.517 1.26-1.847 1.888-3.844 1.888-5.992 0-3.325-1.505-6.144-4.515-8.457-1.85-1.258-3.846-1.887-5.995-1.887-3.324 0-6.144 1.505-8.456 4.515-1.26 1.848-1.89 3.846-1.89 5.994zM2315.93 324.12h.327c.917 0 1.438.63 1.56 1.887v15.19c0 1.135.63 2.42 1.89 3.858 1.968 1.86 4.322 2.792 7.06 2.792 3.242 0 5.87-1.342 7.88-4.023.658-1.286.986-2.19.986-2.71l-.082-.985v-14.123c.125-1.258.645-1.888 1.56-1.888h.33c.917 0 1.437.63 1.56 1.887v13.383c0 5.473-2.627 9.168-7.882 11.084-1.588.438-3.01.657-4.27.657h-.328c-4.72 0-8.388-2.025-11.002-6.075-.766-1.63-1.15-3.38-1.15-5.254v-13.793c.124-1.258.644-1.888 1.56-1.888zM2238.168 353.25c-.59 0-1.18-.225-1.632-.675-.904-.9-.908-2.364-.008-3.27l.44-.442c.025-.025.05-.05.075-.072l9.15-9.15c.44-.44.962-1.12.96-1.874-.004-.75-.524-1.426-.96-1.86l-9.54-9.546c-1.31-1.308-2.428-1.308-3.74 0l-9.674 9.68c-.904.903-2.37.903-3.272 0-.904-.903-.905-2.367 0-3.27l9.675-9.68c3.125-3.12 7.16-3.12 10.28 0l9.542 9.544c1.505 1.504 2.305 3.272 2.313 5.112.008 1.857-.79 3.644-2.313 5.164l-9.66 9.662c-.452.45-1.045.678-1.637.678zM2117.026 350.637c-8.235 0-14.936-6.7-14.936-14.936 0-8.235 6.7-14.935 14.936-14.935 1.855 0 3.647.334 5.325.993 1.095.43 1.965.862 2.66 1.323.116.076.225.158.336.254.97.83 1.083 2.29.252 3.26-.81.946-2.215 1.077-3.185.316-.296-.192-.833-.485-1.752-.846-1.137-.447-2.36-.673-3.634-.673-5.685 0-10.31 4.626-10.31 10.31 0 5.686 4.625 10.312 10.31 10.312 1.404 0 2.6-.21 3.556-.627.826-.356 1.393-.634 1.784-.873.99-.73 2.385-.558 3.167.406.804.992.653 2.448-.34 3.253-.118.098-.24.183-.372.263-.593.366-1.334.736-2.397 1.195-1.536.67-3.353 1.01-5.397 1.01z"/></g></g></svg>